<?xml version="1.0" encoding="UTF-8"?><svg id="Calque_2" xmlns="http://www.w3.org/2000/svg" viewBox="0 0 606.03 577.37"><defs><style>.cls-1{fill:#f37a3e;}.cls-2{fill:#4666c8;}.cls-3{fill:#8abae7;}.cls-4{fill:#d8e5f3;}.cls-5{fill:#d7e4f2;}.cls-6{fill:#fff;}.cls-7{fill:#4666c9;}.cls-8{fill:#4666c7;}.cls-9{fill:#f47a3e;}.cls-10{fill:none;stroke:#000;stroke-miterlimit:10;stroke-width:2px;}.cls-11{fill:#88b8e5;}.cls-12{fill:#d6e3f1;}.cls-13{fill:#89b9e6;}.cls-14{fill:#f57a3e;}</style></defs><g id="text"><ellipse class="cls-5" cx="274.69" cy="552.2" rx="274.69" ry="25.17"/><path class="cls-5" d="M485.81,506.15c-39.4,9.23-78.21-15.09-118.2-21.26-38.31-5.91-77.02,5.06-114.04,16.56-37.02,11.5-75.05,23.79-113.67,20.56-38.63-3.23-78.48-26.3-88.58-63.72-10.42-38.59,12.59-77.54,18.47-117.07,6.16-41.38-6.67-82.88-13.21-124.2-6.55-41.32-5.14-88.26,23.42-118.83,28.51-30.51,75.31-35.15,116.79-30.32,41.48,4.83,82.73,17.08,124.27,12.73,29.73-3.12,57.92-14.62,87.28-20.26,29.36-5.64,62.53-4.38,85.45,14.81,20.22,16.93,28.38,44.63,29.26,70.99.88,26.36-4.41,52.51-6.11,78.83-3.96,61.32,7.8,115.24,26.15,175.56,12.7,41.74-11.35,94.86-57.28,105.62Z"/><path class="cls-13" d="M476.74,74.47c-.12,0-.24-.04-.35-.12-15.75-11.94-38.75-11.93-55.28-9.82-17.97,2.3-32.38,7.5-32.52,7.56-.3.11-.63-.04-.74-.34-.11-.3.05-.63.34-.74.14-.05,14.66-5.3,32.75-7.61,16.75-2.14,40.08-2.14,56.14,10.04.25.19.3.56.11.81-.11.15-.29.23-.46.23Z"/><path d="M89.28,245.73c-.32,0-.58-.26-.58-.58v-8.53c0-.32.26-.58.58-.58s.58.26.58.58v8.53c0,.32-.26.58-.58.58Z"/><path d="M89.28,260.03c-.32,0-.58-.26-.58-.58v-8.53c0-.32.26-.58.58-.58s.58.26.58.58v8.53c0,.32-.26.58-.58.58Z"/><path d="M100.7,248.62h-8.53c-.32,0-.58-.26-.58-.58s.26-.58.58-.58h8.53c.32,0,.58.26.58.58s-.26.58-.58.58Z"/><path d="M86.39,248.62h-8.53c-.32,0-.58-.26-.58-.58s.26-.58.58-.58h8.53c.32,0,.58.26.58.58s-.26.58-.58.58Z"/><path d="M501.61,106.54c-.15,0-.3-.06-.41-.17l-10.68-10.68c-.23-.23-.23-.59,0-.82.23-.23.59-.23.82,0l10.68,10.68c.23.23.23.59,0,.82-.11.11-.26.17-.41.17Z"/><path d="M490.94,106.54c-.15,0-.3-.06-.41-.17-.23-.23-.23-.59,0-.82l10.68-10.68c.23-.23.59-.23.82,0s.23.59,0,.82l-10.68,10.68c-.11.11-.26.17-.41.17Z"/><path class="cls-13" d="M524.74,481.88c-.15,0-.31-.06-.42-.18-.22-.23-.21-.6.03-.82,11.56-10.86,24.32-32.93,19.45-76.37-.04-.32.19-.6.51-.64.32-.04.6.19.64.51,2.72,24.24,1.49,57.34-19.81,77.34-.11.1-.25.16-.4.16Z"/><path class="cls-13" d="M539.7,426.5s-.01,0-.02,0c-.32-.01-.57-.28-.56-.6.91-27.33-4.87-43.6-10.98-60.83-5.79-16.34-11.79-33.23-11.61-60.36,0-.32.26-.57.58-.57h0c.32,0,.58.26.57.58-.18,26.93,5.78,43.73,11.54,59.97,5.88,16.57,11.96,33.7,11.04,61.25-.01.31-.27.56-.58.56Z"/><path class="cls-13" d="M375.33,69.07c-.24,0-.46-.15-.54-.38-.11-.3.05-.63.35-.74.59-.21,59.24-20.75,96.95-5.68.3.12.44.45.32.75-.12.3-.45.44-.75.32-37.31-14.91-95.55,5.48-96.14,5.69-.06.02-.13.03-.19.03Z"/><path class="cls-13" d="M82.42,492.17c-.1,0-.21-.03-.3-.09-24.59-15.1-28.94-40.03-28.26-58.28.73-19.71,7.35-36.08,7.41-36.25.12-.3.46-.44.75-.32.3.12.44.46.32.75-.07.16-6.61,16.37-7.33,35.88-.42,11.43,1.21,21.73,4.84,30.64,4.53,11.1,12.23,20.05,22.87,26.58.27.17.36.52.19.79-.11.18-.3.28-.49.28Z"/><path class="cls-13" d="M54.37,402.81c-.08,0-.16-.02-.23-.05-.29-.13-.42-.47-.29-.76.2-.44,19.47-44.48,16.86-90.96-.02-.32.23-.59.54-.61.33-.02.59.23.61.54,2.63,46.76-16.76,91.05-16.95,91.49-.1.22-.31.34-.53.34Z"/><rect class="cls-13" x="84.97" y="127.42" width="13.8" height="13.8" transform="translate(251.8 164.33) rotate(135)"/><path class="cls-5" d="M327.57,478.59l-16.28-60.29s16.36,15.17,42.92,17.63l10.12,42.67h-36.77Z"/><path d="M364.34,479.08h-36.77c-.22,0-.42-.15-.48-.37l-16.28-60.29c-.06-.21.03-.44.22-.55.19-.11.43-.09.59.06.16.15,16.56,15.09,42.63,17.5.21.02.39.17.44.38l10.12,42.67c.04.15,0,.3-.09.42-.09.12-.24.19-.39.19ZM327.95,478.1h35.76l-9.89-41.71c-22.15-2.15-37.35-13.21-41.63-16.68l15.76,58.4Z"/><path class="cls-6" d="M315.22,478.59l-15.35-42.67s21.14,8.54,48.93,8.54l8.17,34.13h-41.75Z"/><path d="M356.97,479.08h-41.75c-.21,0-.39-.13-.47-.33l-15.35-42.67c-.07-.18-.02-.39.12-.52.14-.14.35-.18.53-.1.21.08,21.38,8.51,48.74,8.51.23,0,.43.16.48.38l8.17,34.13c.04.15,0,.3-.09.42-.09.12-.24.19-.39.19ZM315.57,478.1h40.77l-7.93-33.14c-23.98-.07-43.18-6.54-47.71-8.19l14.87,41.33Z"/><path d="M308.27,470.76c-24.15,0-12.49,19.29-12.49,32.79,0,12.16-5.73,22.92-5.73,22.92h18.22v-55.71Z"/><polygon class="cls-2" points="410.81 538.81 297.62 538.81 308.27 470.76 400.87 470.76 410.81 538.81"/><path class="cls-10" d="M310.92,445.62s10.95,3.84,31.31,4.86l-31.31-4.86Z"/><path class="cls-10" d="M313.38,453.38s16.51,2.56,30.08,3.24l-30.08-3.24Z"/><path class="cls-10" d="M315.84,461.14s22.07,1.28,28.85,1.62l-28.85-1.62Z"/><path class="cls-10" d="M318.29,468.9h27.63-27.63Z"/><path d="M329.06,539.3c-.24,0-.45-.18-.49-.42l-9.95-68.05c-.04-.27.15-.52.42-.56.27-.04.52.15.56.42l9.95,68.05c.04.27-.15.52-.42.56-.02,0-.05,0-.07,0Z"/><path d="M312.36,539.3c-.27,0-.49-.22-.49-.49v-68.05c0-.27.22-.49.49-.49s.49.22.49.49v68.05c0,.27-.22.49-.49.49Z"/><polygon class="cls-2" points="257.08 471.73 271.4 537.89 166.55 537.89 171.66 471.73 257.08 471.73"/><path class="cls-6" d="M224.09,485.67l45.2-76.91,19.09,23.56-43.87,47.83s-9.03,5.03-20.43,5.52Z"/><path class="cls-13" d="M269.29,408.76c5.51-10.51,28.4,13.41,19.09,23.56-7.72,8.42-25.02-12.25-19.09-23.56Z"/><path d="M245.82,478.98c-.05,0-.1-.02-.15-.05-.1-.08-.13-.22-.07-.32l29.08-49.2c-4.74-5.1-9.23-15.62-5.59-20.79,2-2.85,4.81-3.33,7.91-1.38,5.65,3.56,11.06,14.8,8.25,19.8-1.01,1.8-2.51,2.29-4.21,1.39-4.03-2.14-8.5-11.88-6.46-15.97.67-1.34,1.55-1.66,2.18-1.69,1.34-.08,2.85,1.01,4.08,2.9,1.51,2.32,2.67,6.18,1,9.41-.45.88-.96,1.02-1.3.98-.63-.07-1.19-.78-1.49-1.91-.58-2.14-.14-5.06,2.13-6.84-.23-.5-.49-.96-.75-1.37-1.11-1.72-2.5-2.74-3.63-2.68-.72.04-1.32.52-1.77,1.42-1.9,3.81,2.47,13.3,6.25,15.31,1.47.78,2.66.38,3.54-1.19,2.3-4.09-1.63-15.07-8.08-19.13-2.01-1.27-4.91-2.09-7.25,1.24-1.54,2.19-1.65,5.73-.31,9.95,1.21,3.8,3.44,7.67,5.98,10.35.08.08.09.2.03.3l-27.97,47.32,40.97-44.67c.09-.1.25-.11.35-.02.1.09.11.25.01.35l-42.57,46.41c-.05.05-.11.08-.18.08ZM281.39,415.78c-1.99,1.65-2.37,4.36-1.86,6.24.24.89.67,1.51,1.07,1.55.27.03.56-.23.81-.72,1.19-2.3.84-4.96-.02-7.07Z"/><path d="M179.16,537.15c-.27,0-.49-.22-.49-.49v-64.93c0-.18.1-.35.26-.44.16-.09.36-.07.51.03,13.12,8.97,33.47,18.31,55.88,11.84,13.42-3.87,21.32-11.7,21.4-11.78.19-.19.51-.19.7,0,.19.19.19.51,0,.7-.08.08-8.13,8.06-21.78,12.02-12.45,3.61-32.22,4.51-55.99-11.43v64c0,.27-.22.49-.49.49Z"/><path class="cls-6" d="M312.15,152.59l5.69-23.53c-3.71-1.67-7.56-2.53-11.28-2.52-13.66.03-22.38,11.82-19.31,26.1,3.07,14.29,16.83,26.02,30.49,25.99,13.66-.03,22.38-11.82,19.31-26.1l-24.9.06Z"/><path class="cls-11" d="M316.41,149.24l24.85-.27c-1.07-4.8-3.38-9.49-6.68-13.56-3.3-4.07-7.46-7.35-12.03-9.49l-6.15,23.31Z"/><path class="cls-8" d="M380.56,181.73l-42.07.1c-.24,0-.48-.13-.65-.34l-14.14-17.51c-.27-.33-.27-.77.01-.98.28-.21.72-.11.99.23l13.87,17.17,41.69-.1c.38,0,.75.32.84.71.08.39-.15.71-.53.71Z"/><path class="cls-8" d="M332.68,140.22c-.19,0-.4-.08-.57-.24-.31-.3-.38-.75-.15-1.01l7.23-8.24c.1-.11.25-.18.41-.18l29.89-.07c.38,0,.75.32.84.71.08.39-.15.71-.53.72l-29.64.07-7.07,8.06c-.1.12-.25.18-.41.18Z"/><path class="cls-6" d="M346.2,177.42l29.74-.07-29.74.07Z"/><path d="M376.09,178.06l-29.74.07c-.38,0-.75-.32-.84-.71-.08-.39.15-.71.53-.72l29.74-.07c.38,0,.75.32.84.71.08.39-.15.71-.53.71Z"/><path class="cls-6" d="M342.75,127.42l23.88-.06-23.88.06Z"/><path d="M366.79,128.08l-23.88.06c-.38,0-.75-.32-.84-.71-.08-.39.15-.71.53-.71l23.88-.06c.38,0,.75.32.84.71s-.15.71-.53.72Z"/><polygon class="cls-6" points="474.76 33.46 363.63 33.46 357.84 .64 468.97 .64 474.76 33.46"/><path d="M474.76,34.1h-111.12c-.31,0-.58-.22-.63-.53l-5.79-32.82c-.03-.19.02-.38.14-.52.12-.14.3-.23.49-.23h111.12c.31,0,.58.22.63.53l5.79,32.82c.03.19-.02.38-.14.52-.12.14-.3.23-.49.23ZM364.17,32.82h109.83l-5.56-31.54h-109.83l5.56,31.54Z"/><path class="cls-7" d="M388.97,26.1h-11.42c-.32,0-.58-.23-.63-.54l-1.67-10.76h-10.87c-.35,0-.64-.29-.64-.64s.29-.64.64-.64h11.42c.32,0,.58.23.63.54l1.67,10.76h10.11l-2.52-14.31c-.03-.19.02-.38.14-.52.12-.14.3-.23.49-.23h11.42c.31,0,.58.22.63.53l1.24,7h10.12l-1.86-10.55c-.03-.19.02-.38.14-.52.12-.14.3-.23.49-.23h11.42c.31,0,.58.22.63.53l1.23,7h10.88c.31,0,.58.22.63.53l.57,3.24h10.12l-.53-3.02c-.03-.19.02-.38.14-.52.12-.14.3-.23.49-.23h11.42c.31,0,.58.22.63.53l1.23,7h10.88c.35,0,.64.29.64.64s-.29.64-.64.64h-11.42c-.31,0-.58-.22-.63-.53l-1.23-7h-10.12l.53,3.02c.03.19-.02.38-.14.52-.12.14-.3.23-.49.23h-11.42c-.31,0-.58-.22-.63-.53l-.57-3.24h-10.88c-.31,0-.58-.22-.63-.53l-1.24-7h-10.12l1.86,10.55c.03.19-.02.38-.14.52-.12.14-.3.23-.49.23h-11.42c-.31,0-.58-.22-.63-.53l-1.23-7h-10.12l2.52,14.31c.03.19-.02.38-.14.52-.12.14-.3.23-.49.23Z"/><path class="cls-14" d="M388.97,26.1h-11.42c-.35,0-.64-.29-.64-.64s.29-.64.64-.64h11.42c.35,0,.64.29.64.64s-.29.64-.64.64Z"/><path class="cls-14" d="M468.22,22.34h-11.42c-.35,0-.64-.29-.64-.64s.29-.64.64-.64h11.42c.35,0,.64.29.64.64s-.29.64-.64.64Z"/><path class="cls-14" d="M419.9,7.27h-11.42c-.35,0-.64-.29-.64-.64s.29-.64.64-.64h11.42c.35,0,.64.29.64.64s-.29.64-.64.64Z"/><path class="cls-14" d="M410.47,18.57h-11.42c-.35,0-.64-.29-.64-.64s.29-.64.64-.64h11.42c.35,0,.64.29.64.64s-.29.64-.64.64Z"/><polygon class="cls-6" points="434.1 104.31 348.68 104.31 338.45 46.32 423.87 46.32 434.1 104.31"/><path d="M434.1,104.87h-85.42c-.27,0-.5-.19-.55-.46l-10.23-58c-.03-.16.02-.33.12-.45.11-.13.26-.2.43-.2h85.42c.27,0,.5.19.55.46l10.23,58c.03.16-.02.33-.12.45-.11.13-.26.2-.43.2ZM349.15,103.76h84.29l-10.03-56.88h-84.29l10.03,56.88Z"/><path d="M356.48,82.11c-.27,0-.5-.19-.55-.46l-3.88-21.99c-.05-.3.15-.59.45-.65.3-.05.59.15.65.45l3.88,21.99c.05.3-.15.59-.45.65-.03,0-.07,0-.1,0Z"/><path d="M370.37,101.02c-.26,0-.5-.19-.55-.46l-5.95-33.72c-.05-.3.15-.59.45-.65.3-.05.59.15.65.45l5.95,33.72c.05.3-.15.59-.45.65-.03,0-.07,0-.1,0Z"/><path d="M379.95,95.55c-.27,0-.5-.19-.55-.46l-3.32-18.85c-.05-.3.15-.59.45-.65.3-.05.59.15.65.45l3.32,18.85c.05.3-.15.59-.45.65-.03,0-.07,0-.1,0Z"/><path d="M388.95,86.77c-.27,0-.5-.19-.55-.46l-5.28-29.95c-.05-.3.15-.59.45-.65.3-.05.59.15.65.45l5.28,29.95c.05.3-.15.59-.45.65-.03,0-.07,0-.1,0Z"/><path d="M400.4,91.86c-.27,0-.5-.19-.55-.46l-4.82-27.33c-.05-.3.15-.59.45-.65.3-.05.59.15.65.45l4.82,27.33c.05.3-.15.59-.45.65-.03,0-.07,0-.1,0Z"/><path d="M411.78,96.58c-.27,0-.5-.19-.55-.46l-4.58-25.97c-.05-.3.15-.59.45-.65.3-.05.59.15.65.45l4.58,25.97c.05.3-.15.59-.45.65-.03,0-.07,0-.1,0Z"/><path d="M420.87,88.3c-.27,0-.5-.19-.55-.46l-5.55-31.49c-.05-.3.15-.59.45-.65.3-.05.59.15.65.45l5.55,31.49c.05.3-.15.59-.45.65-.03,0-.07,0-.1,0Z"/><polygon class="cls-7" points="358.32 76.14 352.73 76.14 350.59 63.98 356.18 63.98 358.32 76.14"/><polygon class="cls-14" points="370.83 87.74 365.24 87.74 362.12 70.06 367.71 70.06 370.83 87.74"/><polygon class="cls-14" points="382.1 91.31 376.51 91.31 374.71 81.11 380.3 81.11 382.1 91.31"/><polygon class="cls-7" points="391.25 83.46 385.66 83.46 381.61 60.52 387.21 60.52 391.25 83.46"/><polygon class="cls-14" points="401.01 78.9 395.42 78.9 393.27 66.74 398.87 66.74 401.01 78.9"/><polygon class="cls-7" points="412.57 84.59 406.97 84.59 405.9 78.51 411.49 78.51 412.57 84.59"/><polygon class="cls-7" points="421.96 78.07 416.37 78.07 413.71 62.98 419.3 62.98 421.96 78.07"/><path class="cls-6" d="M288.04,111.58h-130.62s-16.08-30.7-16.08-91.19h130.62c0,61.23,16.08,91.19,16.08,91.19Z"/><path d="M288.04,112.22h-130.62c-.24,0-.46-.13-.57-.34-.16-.31-16.15-31.54-16.15-91.49,0-.35.29-.64.64-.64h130.62c.35,0,.64.29.64.64,0,60.33,15.84,90.59,16,90.89.11.2.1.44-.01.63-.12.19-.32.31-.55.31ZM157.81,110.94h129.2c-2.64-5.55-15.59-35.52-15.69-89.91h-129.34c.11,55.84,14.12,86.39,15.84,89.91Z"/><path class="cls-3" d="M265.09,66.62h-4.7c-.35,0-.64-.29-.64-.64s.29-.64.64-.64h4.7c.35,0,.64.29.64.64s-.29.64-.64.64ZM255.28,66.62h-5.12c-.35,0-.64-.29-.64-.64s.29-.64.64-.64h5.12c.35,0,.64.29.64.64s-.29.64-.64.64ZM245.05,66.62h-5.12c-.35,0-.64-.29-.64-.64s.29-.64.64-.64h5.12c.35,0,.64.29.64.64s-.29.64-.64.64ZM234.81,66.62h-5.12c-.35,0-.64-.29-.64-.64s.29-.64.64-.64h5.12c.35,0,.64.29.64.64s-.29.64-.64.64ZM224.58,66.62h-5.12c-.35,0-.64-.29-.64-.64s.29-.64.64-.64h5.12c.35,0,.64.29.64.64s-.29.64-.64.64ZM214.35,66.62h-5.12c-.35,0-.64-.29-.64-.64s.29-.64.64-.64h5.12c.35,0,.64.29.64.64s-.29.64-.64.64ZM204.11,66.62h-5.12c-.35,0-.64-.29-.64-.64s.29-.64.64-.64h5.12c.35,0,.64.29.64.64s-.29.64-.64.64ZM193.88,66.62h-5.12c-.35,0-.64-.29-.64-.64s.29-.64.64-.64h5.12c.35,0,.64.29.64.64s-.29.64-.64.64ZM183.65,66.62h-5.12c-.35,0-.64-.29-.64-.64s.29-.64.64-.64h5.12c.35,0,.64.29.64.64s-.29.64-.64.64ZM173.41,66.62h-5.12c-.35,0-.64-.29-.64-.64s.29-.64.64-.64h5.12c.35,0,.64.29.64.64s-.29.64-.64.64ZM163.18,66.62h-5.12c-.35,0-.64-.29-.64-.64s.29-.64.64-.64h5.12c.35,0,.64.29.64.64s-.29.64-.64.64Z"/><path class="cls-14" d="M258.2,81.62c0-3.48-2.82-6.3-6.3-6.3s-6.3,2.82-6.3,6.3,2.82,6.3,6.3,6.3,6.3-2.82,6.3-6.3Z"/><polygon class="cls-6" points="287.7 233.97 189.62 233.97 177.88 167.38 275.96 167.38 287.7 233.97"/><path d="M287.7,234.61h-98.08c-.31,0-.58-.22-.63-.53l-11.74-66.59c-.03-.19.02-.38.14-.52.12-.14.3-.23.49-.23h98.08c.31,0,.58.22.63.53l11.74,66.59c.03.19-.02.38-.14.52-.12.14-.3.23-.49.23ZM190.16,233.33h96.78l-11.52-65.31h-96.78l11.52,65.31Z"/><path class="cls-14" d="M220.73,175.23c-.07,0-.14-.01-.2-.03-.33-.11-.52-.48-.4-.81l31.17-92.97c.11-.33.47-.52.81-.4.34.11.52.48.4.81l-31.17,92.97c-.09.27-.34.44-.61.44Z"/><polygon class="cls-6" points="491.49 174.26 411.11 174.26 401.49 119.69 481.86 119.69 491.49 174.26"/><path d="M491.49,174.9h-80.38c-.31,0-.58-.22-.63-.53l-9.62-54.57c-.03-.19.02-.38.14-.52.12-.14.3-.23.49-.23h80.38c.31,0,.58.22.63.53l9.62,54.57c.03.19-.02.38-.14.52-.12.14-.3.23-.49.23ZM411.65,173.62h79.08l-9.4-53.29h-79.08l9.4,53.29Z"/><path class="cls-14" d="M472.46,157.91c-.2,0-.39-.09-.51-.26l-10.75-14.46-8.37,11.11c-.12.15-.29.25-.49.25-.2,0-.38-.07-.5-.22l-3.06-3.48-1.73,3.35c-.11.21-.31.34-.55.35-.23,0-.45-.11-.57-.31l-8.37-13.69-1.99,3.23c-.13.21-.36.32-.61.3-.24-.02-.45-.18-.54-.41l-1.98-5.3-7.93,18.33c-.14.32-.52.47-.84.33-.32-.14-.47-.52-.33-.84l8.56-19.79c.1-.24.34-.39.6-.39.26,0,.49.17.58.42l2.08,5.56,1.85-3.01c.12-.19.32-.3.54-.3h0c.22,0,.43.12.55.31l8.32,13.61,1.63-3.18c.1-.19.28-.32.49-.34.21-.03.42.05.56.21l3.16,3.6,8.41-11.17c.12-.16.31-.26.51-.26h0c.2,0,.39.1.51.26l11.26,15.15c.21.28.15.68-.13.89-.11.09-.25.13-.38.13Z"/><path class="cls-14" d="M401.02,226.28c-.35,0-.64-.29-.64-.64V59.75l-20.73-52.19-127.43,74.61c-.3.18-.7.08-.88-.23-.18-.3-.08-.7.23-.88L379.65,6.08c.16-.09.36-.11.53-.05.18.06.32.2.39.37l21.05,52.99c.03.08.05.16.05.24v166.02c0,.35-.29.64-.64.64Z"/><path class="cls-14" d="M458.7,142.26c-.2,0-.4-.09-.52-.27l-57.68-82c-.2-.29-.13-.69.16-.89.29-.2.69-.13.89.16l57.68,82c.2.29.13.69-.16.89-.11.08-.24.12-.37.12Z"/><path class="cls-14" d="M307.33,314.15c-.2,0-.4-.09-.52-.27l-57.68-82c-.2-.29-.13-.69.16-.89.29-.2.69-.13.89.16l57.68,82c.2.29.13.69-.16.89-.11.08-.24.12-.37.12Z"/><path class="cls-14" d="M348.8,318.79c-.1-.17-.13-.39-.04-.59l40.08-91.89c.14-.32.52-.47.84-.33.32.14.47.52.33.84l-40.08,91.89c-.14.32-.52.47-.84.33-.13-.05-.22-.15-.29-.25Z"/><path class="cls-7" d="M183.39,96.57c-4.59,0-7.55-11.15-11.22-26.9-1.1-4.7-2.13-9.14-3.14-12.39-1.48-4.77-2.31-4.9-2.4-4.9-1.61,0-2.08,5.09-2.45,9.18-.54,5.89-1.1,11.98-4.68,11.98-.35,0-.64-.29-.64-.64s.29-.64.64-.64c2.42,0,2.97-6,3.41-10.82.51-5.55.95-10.34,3.73-10.34,2.41,0,3.99,6.27,6.79,18.28,2.55,10.93,6.05,25.91,9.98,25.91.25,0,.44-.1.63-.31,2.34-2.65.53-17.18-1.07-29.99-1.96-15.76-3-25.5-.89-27.89.36-.41.81-.62,1.32-.62,3.91,0,5.61,8.53,7.58,18.41,1.54,7.74,3.47,17.38,6.33,17.38.43,0,.75-.14,1.02-.44,1.55-1.74.86-7.83.25-13.21-.66-5.82-1.23-10.85.37-12.64.41-.46.95-.7,1.57-.7,3.29,0,3.99,4.51,4.66,8.86.67,4.33,1.35,8.8,4.26,8.8,4.48,0,6,6.99,7.47,13.75,1.27,5.86,2.59,11.93,5.57,11.93.26,0,.48-.1.69-.33,2.07-2.25,1.17-13.13.37-22.74-.87-10.55-1.62-19.66.53-22,.39-.42.88-.65,1.42-.65,3.86,0,5.63,7.37,7.51,15.18,1.38,5.76,2.95,12.29,4.99,12.29,1.87,0,2.21-8.72,2.46-15.08.4-10.22.78-19.88,5.14-19.88s5.53,6.18,6.76,12.16c.91,4.43,1.85,9,3.82,9,.56,0,1.06-.23,1.53-.7,3.05-3.12,2.83-14.35,2.83-14.46,0-.35.27-.65.62-.65.35-.01.65.27.65.62.01.48.23,11.88-3.19,15.38-.71.72-1.53,1.09-2.44,1.09-3.02,0-3.97-4.65-5.07-10.03-1.07-5.22-2.29-11.14-5.51-11.14s-3.53,10.34-3.86,18.65c-.4,10.11-.79,16.31-3.74,16.31s-4.53-6.15-6.24-13.27c-1.52-6.33-3.41-14.2-6.26-14.2-.12,0-.29.03-.48.23-1.77,1.93-.94,12.08-.2,21.03.89,10.83,1.74,21.05-.71,23.71-.45.48-1.01.74-1.63.74-4.01,0-5.37-6.28-6.82-12.93-1.36-6.27-2.77-12.75-6.22-12.75-4.01,0-4.81-5.25-5.53-9.88-.62-4-1.2-7.78-3.39-7.78-.26,0-.45.08-.61.27-1.22,1.36-.6,6.83-.05,11.65.7,6.19,1.36,12.04-.57,14.21-.51.58-1.18.87-1.98.87-3.91,0-5.61-8.53-7.58-18.41-1.54-7.74-3.47-17.38-6.33-17.38-.1,0-.22.02-.36.19-1.89,2.14-.25,15.29,1.2,26.89,1.79,14.36,3.48,27.91.76,31-.43.49-.98.75-1.59.75Z"/><path class="cls-14" d="M404.01,59.63c0-1.65-1.34-2.98-2.98-2.98s-2.98,1.34-2.98,2.98,1.34,2.98,2.98,2.98,2.98-1.34,2.98-2.98Z"/><path class="cls-14" d="M461.69,141.62c0-1.65-1.34-2.98-2.98-2.98s-2.98,1.34-2.98,2.98,1.34,2.98,2.98,2.98,2.98-1.34,2.98-2.98Z"/><path class="cls-14" d="M223.72,174.59c0-1.65-1.34-2.98-2.98-2.98s-2.98,1.34-2.98,2.98,1.34,2.98,2.98,2.98,2.98-1.34,2.98-2.98Z"/><circle class="cls-14" cx="249.01" cy="228.95" r="2.98"/><path class="cls-14" d="M383.14,6.63c0-1.65-1.34-2.98-2.98-2.98s-2.98,1.34-2.98,2.98,1.34,2.98,2.98,2.98,2.98-1.34,2.98-2.98Z"/><polygon class="cls-3" points="205.51 226.57 199.44 226.57 197.34 214.67 203.41 214.67 205.51 226.57"/><polygon class="cls-4" points="209.47 214.67 203.41 214.67 201.31 202.77 207.37 202.77 209.47 214.67"/><polygon class="cls-4" points="213.44 202.77 207.37 202.77 205.28 190.87 211.34 190.87 213.44 202.77"/><polygon class="cls-3" points="217.41 190.87 211.34 190.87 209.24 178.98 215.31 178.98 217.41 190.87"/><polygon class="cls-4" points="225.63 202.77 219.56 202.77 217.46 190.87 223.53 190.87 225.63 202.77"/><polygon class="cls-3" points="233.74 214.67 227.68 214.67 225.58 202.77 231.64 202.77 233.74 214.67"/><polygon class="cls-4" points="237.68 202.77 231.62 202.77 229.52 190.87 235.59 190.87 237.68 202.77"/><polygon class="cls-3" points="241.65 190.87 235.59 190.87 233.49 178.98 239.55 178.98 241.65 190.87"/><polygon class="cls-4" points="249.81 202.77 243.75 202.77 241.65 190.87 247.72 190.87 249.81 202.77"/><polygon class="cls-4" points="257.98 214.67 251.91 214.67 249.81 202.77 255.88 202.77 257.98 214.67"/><polygon class="cls-3" points="266.14 226.57 260.08 226.57 257.98 214.67 264.04 214.67 266.14 226.57"/><polygon class="cls-4" points="270.11 214.67 264.04 214.67 261.94 202.77 268.01 202.77 270.11 214.67"/><polygon class="cls-4" points="274.07 202.77 268.01 202.77 265.91 190.87 271.98 190.87 274.07 202.77"/><polygon class="cls-6" points="261.44 157.79 210.7 155.71 206.04 121.01 256.78 123.1 261.44 157.79"/><polygon class="cls-6" points="215.45 143.41 222.32 130.6 233.27 150.81 238.71 137.23 242.04 143.08 246.96 131.61 255.33 144.1 215.45 143.41"/><path d="M233.25,151.45c-.22,0-.43-.14-.54-.33l-10.38-19.17-6.31,11.76c-.17.31-.55.43-.87.26-.31-.17-.43-.55-.26-.87l6.87-12.81c.11-.21.33-.34.56-.34.24,0,.45.13.56.33l10.3,19.01,4.93-12.32c.09-.23.3-.38.55-.4.24-.02.48.11.6.32l2.69,4.73,4.41-10.28c.09-.22.3-.36.53-.38.23-.02.46.09.59.28l8.37,12.48c.2.29.12.69-.18.89-.29.2-.69.12-.89-.17l-7.72-11.51-4.45,10.38c-.1.22-.31.37-.55.39-.24.02-.47-.11-.59-.32l-2.67-4.7-4.95,12.35c-.09.23-.31.39-.56.4-.02,0-.04,0-.06,0Z"/><path d="M462.15,157.91s-.02,0-.02,0c-.19,0-.37-.1-.48-.25l-15.42-19.82-8.88,16.38c-.09.17-.25.29-.44.32-.19.04-.38-.01-.53-.14l-14.51-12.05c-.27-.23-.31-.63-.08-.9.23-.27.63-.31.9-.08l13.91,11.55,8.98-16.56c.1-.19.29-.31.51-.33.22-.02.42.07.56.24l15.55,19.99,9.84-10.95c.24-.26.64-.28.9-.05.26.24.28.64.05.9l-10.36,11.52c-.12.14-.29.21-.48.21Z"/><path class="cls-6" d="M424.86,141.87c-.25-1.43-1.62-2.6-3.05-2.6s-2.39,1.16-2.14,2.6c.25,1.43,1.62,2.6,3.05,2.6s2.39-1.16,2.14-2.6Z"/><path d="M422.73,145.1c-1.76,0-3.37-1.37-3.68-3.12-.16-.89.05-1.73.59-2.37.53-.63,1.3-.97,2.18-.97,1.76,0,3.37,1.37,3.68,3.12.16.89-.05,1.73-.59,2.37-.53.63-1.3.97-2.18.97ZM421.81,139.91c-.49,0-.92.18-1.2.52-.29.34-.4.82-.31,1.33.2,1.12,1.31,2.07,2.42,2.07.49,0,.92-.18,1.2-.52.29-.34.4-.82.31-1.33-.2-1.12-1.31-2.07-2.42-2.07Z"/><path class="cls-6" d="M439.38,153.92c-.25-1.43-1.62-2.6-3.05-2.6s-2.39,1.16-2.14,2.6c.25,1.43,1.62,2.6,3.05,2.6s2.39-1.16,2.14-2.6Z"/><path d="M437.24,157.15c-1.76,0-3.37-1.37-3.68-3.12-.16-.89.05-1.73.59-2.37.53-.63,1.3-.97,2.18-.97,1.76,0,3.37,1.37,3.68,3.12.16.89-.05,1.73-.59,2.37-.53.63-1.3.97-2.18.97ZM436.32,151.96c-.49,0-.92.18-1.2.52-.29.34-.4.82-.31,1.33.2,1.12,1.31,2.07,2.42,2.07.49,0,.92-.18,1.2-.52.29-.34.4-.82.31-1.33h0c-.2-1.12-1.31-2.07-2.42-2.07Z"/><path class="cls-6" d="M448.72,136.68c-.25-1.43-1.62-2.6-3.05-2.6s-2.39,1.16-2.14,2.6c.25,1.43,1.62,2.6,3.05,2.6s2.39-1.16,2.14-2.6Z"/><path d="M446.58,139.91c-1.76,0-3.37-1.37-3.68-3.12-.16-.89.05-1.73.59-2.37.53-.63,1.3-.97,2.18-.97,1.76,0,3.37,1.37,3.68,3.12h0c.16.89-.05,1.73-.59,2.37-.53.63-1.3.97-2.18.97ZM445.67,134.72c-.49,0-.92.18-1.2.52-.29.34-.4.82-.31,1.33.2,1.12,1.31,2.07,2.42,2.07.49,0,.92-.18,1.2-.52.29-.34.4-.82.31-1.33h0c-.2-1.12-1.31-2.07-2.42-2.07Z"/><path class="cls-6" d="M464.74,157.27c-.25-1.43-1.62-2.6-3.05-2.6s-2.39,1.16-2.14,2.6c.25,1.43,1.62,2.6,3.05,2.6s2.39-1.16,2.14-2.6Z"/><path d="M462.6,160.51c-1.76,0-3.37-1.37-3.68-3.12-.16-.89.05-1.73.59-2.37.53-.63,1.3-.97,2.18-.97,1.76,0,3.37,1.37,3.68,3.12.16.89-.05,1.73-.59,2.37-.53.63-1.3.97-2.18.97ZM461.69,155.32c-.49,0-.92.18-1.2.52-.29.34-.4.82-.31,1.33.2,1.12,1.31,2.07,2.42,2.07.49,0,.92-.18,1.2-.52.29-.34.4-.82.31-1.33-.2-1.12-1.31-2.07-2.42-2.07Z"/><path class="cls-6" d="M475.1,145.75c-.25-1.43-1.62-2.6-3.05-2.6s-2.39,1.16-2.14,2.6c.25,1.43,1.62,2.6,3.05,2.6s2.39-1.16,2.14-2.6Z"/><path d="M472.96,148.99c-1.76,0-3.37-1.37-3.68-3.12-.16-.89.05-1.73.59-2.37.53-.63,1.3-.97,2.18-.97,1.76,0,3.37,1.37,3.68,3.12.16.89-.05,1.73-.59,2.37-.53.63-1.3.97-2.18.97ZM472.04,143.79c-.49,0-.92.18-1.2.52-.29.34-.4.82-.31,1.33.2,1.12,1.31,2.07,2.42,2.07.49,0,.92-.18,1.2-.52.29-.34.4-.82.31-1.33-.2-1.12-1.31-2.07-2.42-2.07Z"/><path class="cls-6" d="M107.24,216.41l1.5,9.73h5.37s7.9,34.4-4.74,57.42c0,0-24.72-30.3-27.39-54.26,0,0,10.99,4.91,4.34-15.84l20.92,2.96Z"/><polygon points="181.87 524.32 134.13 305.15 77.77 305.15 50.9 531.37 82.51 531.37 109.12 374.01 152.57 531.37 181.87 524.32"/><path class="cls-6" d="M135.74,318.61c0,8.7-9.99,15.76-22.31,15.76s-22.31-7.05-22.31-15.76,9.99-15.76,22.31-15.76,22.31,7.05,22.31,15.76Z"/><path class="cls-8" d="M144.67,335.7l-10.54-64.27s20.61,17.38,28.74,15.8c8.13-1.58,37.1-44.77,37.1-44.77l-15.06-16.33-27.17,27.26s-21.53-19.84-27.08-22.43c-5.75-2.68-16.55-4.83-16.55-4.83,0,0,1.58,35.82-4.74,57.42,0,0-21.6-35.29-27.39-54.26,0,0-20.54,2.11-23.7,5.27-3.16,3.16,13.17,96.4,13.17,96.4,0,0,27.92,15.28,31.61,13.17,3.69-2.11,13.34-28.97,13.34-28.97,0,0,10.46,23.89,14.2,25.28,3.41,1.27,14.07-4.74,14.07-4.74Z"/><path class="cls-8" d="M58.28,234.56s-33.71,52.15-33.45,60.58c.26,8.43,40.03,42.14,40.03,42.14l15.54-19.75-22.53-24.76s14.37-22.91,19.9-32.92c5.53-10.01-5.53-31.61-19.49-25.28Z"/><path class="cls-6" d="M211.04,226.53c0-6.11-4.95-11.06-11.06-11.06s-11.06,4.95-11.06,11.06,4.95,11.06,11.06,11.06,11.06-4.95,11.06-11.06Z"/><path d="M199.98,238.66c-6.69,0-12.13-5.44-12.13-12.13s5.44-12.13,12.13-12.13,12.13,5.44,12.13,12.13-5.44,12.13-12.13,12.13ZM199.98,216.54c-5.51,0-9.99,4.48-9.99,9.99s4.48,9.99,9.99,9.99,9.99-4.48,9.99-9.99-4.48-9.99-9.99-9.99Z"/><path class="cls-6" d="M100.65,224.28c19.91-4.58,7.44-60.77-19.07-54.65-23.61,5.45.64,58.88,19.07,54.65Z"/><path d="M98.52,225.59c-4.9,0-10.26-3.28-15.34-9.46-5.24-6.37-9.5-15.07-11.39-23.26-3.02-13.12.55-22.2,9.55-24.28,6.88-1.59,13.41.68,18.89,6.55,9.13,9.8,13.73,28.24,10.05,40.26-1.67,5.47-4.92,8.9-9.38,9.92-.77.18-1.57.27-2.37.27ZM85.55,170.24c-1.18,0-2.42.13-3.72.43-11.1,2.56-9.26,16.04-7.95,21.72,1.82,7.88,5.91,16.25,10.96,22.38,5.38,6.54,10.91,9.55,15.58,8.47h0c4.64-1.07,6.81-5.19,7.82-8.46,3.43-11.19-1.04-29.03-9.57-38.18-2.85-3.06-7.28-6.36-13.12-6.36Z"/><path d="M85.79,189.41c2.13,9.24.24,17.56-4.23,18.59-4.47,1.03-9.82-5.62-11.96-14.85-2.13-9.24-.24-17.56,4.23-18.59,4.47-1.03,9.82,5.62,11.96,14.85Z"/><path class="cls-6" d="M83.55,203.62c3.09,4.36,3.09,9.66,0,11.85-3.08,2.18-8.09.42-11.17-3.94-3.09-4.36-3.09-9.66,0-11.85,3.08-2.18,8.09-.42,11.17,3.94Z"/><path d="M80.47,217.48c-.92,0-1.88-.17-2.86-.52-2.32-.82-4.48-2.53-6.1-4.81-1.62-2.29-2.51-4.9-2.51-7.36,0-2.59.98-4.72,2.77-5.98,3.56-2.52,9.24-.64,12.66,4.19.34.48.23,1.15-.25,1.49-.48.34-1.15.23-1.49-.26-2.74-3.87-7.08-5.52-9.68-3.68-1.2.85-1.86,2.35-1.86,4.23,0,2.02.75,4.19,2.12,6.12,1.37,1.93,3.17,3.36,5.07,4.03,1.77.63,3.41.5,4.61-.35.48-.34,1.15-.23,1.49.25.34.48.23,1.15-.25,1.49-1.07.76-2.33,1.14-3.7,1.14Z"/><path d="M72.05,178.88c26.99,6.77,28.56-10.2,28.56-10.2,0,0-25.38-15.04-28.56,10.2Z"/><path d="M156.52,530.42l3.6,21.78h46.35c0-9.13-20.22-8.57-29.25-26.76-9.03-18.19-20.7-12.36-20.7,4.98Z"/><path d="M78.73,530.01v22.19h-30.02c.41-7.4,10.28-11.77,11.52-24.39,1.23-12.62,18.51-15.35,18.51,0v2.2Z"/><polygon class="cls-6" points="86.57 234.91 96.89 242.12 102.71 234.91 110.52 241.47 112.82 231.96 86.57 234.91"/><path d="M96.89,243.19c-.21,0-.43-.06-.61-.19l-10.32-7.21c-.48-.34-.6-1.01-.26-1.49.34-.48,1.01-.6,1.49-.26l9.5,6.64,5.2-6.44c.18-.22.44-.36.73-.39.28-.03.57.06.79.25l6.49,5.45,1.89-7.84c.14-.57.72-.93,1.29-.79.57.14.93.72.79,1.29l-2.3,9.52c-.09.36-.35.65-.71.77-.35.12-.74.04-1.02-.2l-6.97-5.86-5.14,6.36c-.21.26-.52.4-.83.4Z"/><path d="M105.28,286.42c-.15,0-.31-.03-.46-.1-1.61-.76-15.76-7.53-17.89-9.93-2-2.26.54-5.8,2.27-7.75-3.49-1.21-11.7-4.05-13.53-4.48-1.07-.25-2.4-.56-1.28-15.02.52-6.72,1.35-13.45,1.36-13.52.07-.59.61-1,1.19-.93.59.07,1,.61.93,1.19-1.42,11.46-2.31,24.19-1.43,26.27,2.98.79,14.54,4.85,15.05,5.02.35.12.61.42.69.78.08.36-.04.74-.31,1-1.92,1.83-4.21,5.03-3.34,6.02,1.38,1.56,11.29,6.61,17.21,9.42.53.25.76.89.51,1.43-.18.39-.57.61-.97.61ZM76.51,262.28h0,0Z"/><path d="M116.39,316.23c-.13,0-.26-.02-.38-.07-.55-.21-.83-.83-.62-1.38,4.68-12.17-2.19-28.84-2.26-29.01-.19-.44-.05-.95.32-1.25,4.6-3.64,9.79-8.15,10.67-9.5-.74-1.16-4.79-4.55-8.36-7.2-.26-.2-.42-.5-.43-.83,0-.33.13-.64.39-.85.36-.29,8.71-7.18,12.01-8.91.82-1.42-1.67-11.18-7.17-24.68-.22-.55.04-1.17.59-1.39.55-.22,1.17.04,1.39.59.03.06,2.52,6.2,4.59,12.46,3.92,11.83,3.1,14.15,1.65,14.9-2.41,1.23-8.24,5.89-10.64,7.83,8.2,6.21,8.2,7.63,8.2,8.11s0,1.95-10.92,10.67c1.35,3.52,6.44,18.25,1.99,29.85-.16.43-.57.69-1,.69Z"/><path class="cls-6" d="M63.61,283.53l6.45-10.56-6.45,10.56Z"/><path d="M63.61,284.6c-.19,0-.38-.05-.56-.16-.5-.31-.66-.97-.35-1.47l6.45-10.56c.31-.5.97-.66,1.47-.35.5.31.66.97.35,1.47l-6.45,10.56c-.2.33-.55.51-.91.51Z"/><path class="cls-6" d="M66.33,302.86l14.07,14.67-14.07-14.67Z"/><path d="M80.4,318.6c-.28,0-.56-.11-.77-.33l-14.07-14.67c-.41-.43-.39-1.1.03-1.51.43-.41,1.1-.4,1.51.03l14.07,14.67c.41.43.4,1.1-.03,1.51-.21.2-.47.3-.74.3Z"/><path class="cls-6" d="M134.13,271.44l-1.45-7.75,1.45,7.75Z"/><path d="M134.13,272.51c-.5,0-.95-.36-1.05-.87l-1.45-7.75c-.11-.58.27-1.14.86-1.25.58-.11,1.14.27,1.25.86l1.45,7.75c.11.58-.27,1.14-.86,1.25-.07.01-.13.02-.2.02Z"/><path d="M141.3,316.23c-.17,0-.34-.04-.5-.12l-8.62-4.51c-.52-.27-.73-.92-.45-1.44.27-.52.92-.73,1.44-.45l8.62,4.51c.52.27.73.92.45,1.44-.19.37-.56.57-.95.57Z"/><path d="M83.55,325.93c-.28,0-.56-.11-.77-.33-.41-.43-.4-1.1.03-1.51l12.41-11.96c.43-.41,1.1-.4,1.51.03.41.43.4,1.1-.03,1.51l-12.41,11.96c-.21.2-.48.3-.74.3Z"/><path class="cls-6" d="M77.43,321.31s12.19,5.44,17.99,15.97c0,0,3.88,11.14-8.99,16.5,0,0-15.45-7.34-20.09-18.37l11.09-14.1Z"/><path d="M95.41,338.35c-.39,0-.76-.21-.95-.58-4.63-9.05-17.38-15.44-17.51-15.5-.53-.26-.75-.9-.49-1.43.26-.53.9-.75,1.43-.49.55.27,13.51,6.76,18.46,16.45.27.53.06,1.17-.47,1.44-.16.08-.32.12-.49.12Z"/><path d="M95.41,345.29c-.26,0-.53-.1-.74-.29l-10.41-9.85c-.43-.41-.45-1.08-.04-1.51.41-.43,1.08-.45,1.51-.04l10.41,9.85c.43.41.45,1.08.04,1.51-.21.22-.49.33-.78.33Z"/><path d="M92.96,349.72c-.24,0-.49-.08-.69-.25l-10.7-9.07c-.45-.38-.51-1.06-.12-1.51.38-.45,1.06-.51,1.51-.12l10.7,9.07c.45.38.51,1.06.12,1.51-.21.25-.51.38-.82.38Z"/><path d="M89.76,353.11c-.22,0-.45-.07-.64-.21l-9.36-7.02c-.47-.35-.57-1.03-.21-1.5.36-.47,1.03-.57,1.5-.21l9.36,7.02c.47.35.57,1.03.21,1.5-.21.28-.53.43-.86.43Z"/><path class="cls-6" d="M86.33,228.81c4.68.54.25-10.53.25-10.53l-.25,10.53Z"/><path d="M86.65,229.9c-.14,0-.29,0-.45-.03-.59-.07-1.01-.6-.94-1.19.07-.59.6-1.01,1.19-.94.49.06.6-.09.66-.16.82-1.08-.15-5.46-1.53-8.9-.22-.55.05-1.17.6-1.39.55-.22,1.17.05,1.39.6.55,1.38,3.21,8.42,1.24,11-.37.48-1.03,1.02-2.15,1.02Z"/><path class="cls-6" d="M199.98,220.78l43.18-48.42-43.18,48.42Z"/><path d="M197.58,218.64l45.32-46.52c.14-.14.36-.14.5,0,.13.13.14.34.03.48l-41.05,50.32c-1.12,1.38-3.15,1.58-4.52.46-1.38-1.12-1.58-3.15-.46-4.52.06-.07.12-.15.19-.21Z"/><path d="M505.09,166.17c5.78-.05,11.53,2.6,15.24,7.03,5.57,6.64,6.18,16.05,9.91,23.87,1.82,3.82,4.44,7.24,7.59,10.05,3.04,2.71,6.85,4.2,9.88,6.85,6.57,5.73,11.34,12.31,10.41,21.53-.85,8.43-6.22,16.03-13.3,20.68-7.08,4.66-15.69,6.59-24.16,6.69-10.73.13-21.7-2.71-30.19-9.28s-14.16-17.1-13.55-27.81c.51-8.98,5.17-17.29,6.06-26.24.43-4.36-.04-8.76.34-13.12.92-10.46,11.07-20.17,21.76-20.26Z"/><path d="M384.45,202.57c-.22,0-.42-.09-.57-.24-6.14-6.42-17.93-3.95-18.05-3.92-.43.09-.85-.18-.94-.6-.09-.43.18-.85.6-.94.13-.03,3.21-.69,7.15-.51,4.93.23,8.98,1.71,11.79,4.3,2.89-2.9,16.51-15.31,38.53-15.31.37,0,.7.26.77.63l2.03,9.75c.09.43-.19.84-.61.93-.43.09-.84-.18-.93-.61l-1.9-9.12c-23.7.27-37.14,15.22-37.27,15.38-.15.17-.36.26-.58.27,0,0-.01,0-.02,0Z"/><path d="M384.45,199.1c-.18,0-.36-.06-.51-.19-.33-.28-.37-.78-.09-1.11.11-.13,11.7-13.48,30.73-19.13.21-.06.44-.03.63.08.19.11.32.3.37.52l.83,3.98c.09.43-.19.84-.61.93-.42.09-.84-.19-.93-.61l-.65-3.14c-18.1,5.65-29.05,18.26-29.16,18.39-.16.18-.38.28-.6.28Z"/><polygon class="cls-1" points="427.19 189.95 387.8 203.89 387.83 204 382.21 204.83 361.23 200.36 377.08 252.17 394.79 254.39 400.7 253.89 436.74 238.66 427.19 189.95"/><path d="M400.7,254.68c-.35,0-.67-.24-.76-.59l-12.88-49.89c-.11-.42.14-.85.57-.96.42-.11.85.15.96.57l12.88,49.89c.11.42-.15.85-.57.96-.07.02-.13.03-.2.03Z"/><path d="M394.79,255.18c-.35,0-.67-.24-.76-.6l-12.59-49.55c-.11-.42.15-.85.57-.96.42-.11.85.15.96.57l12.59,49.55c.11.42-.15.85-.57.96-.07.02-.13.02-.19.02Z"/><polygon class="cls-6" points="424.13 214.87 401.71 222.79 398.44 210.87 421.41 202.95 424.13 214.87"/><path class="cls-8" d="M512.72,279.21s26.8,37.29,38.92,35.43c12.12-1.86,41.02-34.03,41.02-34.03,0,0-.93-13.98-13.28-17.48l-27.73,20.37s-19.93-31.09-34.71-37c-13.16-5.26-16.9,16.81-4.21,32.71Z"/><path class="cls-6" d="M605.24,265.69c0-6.05-4.9-10.95-10.95-10.95s-10.95,4.9-10.95,10.95,4.9,10.95,10.95,10.95,10.95-4.9,10.95-10.95Z"/><path d="M594.29,277.44c-6.48,0-11.74-5.27-11.74-11.74s5.27-11.74,11.74-11.74,11.74,5.27,11.74,11.74-5.27,11.74-11.74,11.74ZM594.29,255.53c-5.6,0-10.16,4.56-10.16,10.16s4.56,10.16,10.16,10.16,10.16-4.56,10.16-10.16-4.56-10.16-10.16-10.16Z"/><path class="cls-8" d="M467.97,280.2s-30.3,25.11-38.69,23.01c-15.14-3.78-33.09-42.65-33.09-42.65,0,0,1.17-12.29,20.04-9.87l15.44,24.79s31.66-27.92,42.77-30.63c11.11-2.7,10.18,22.27-6.47,35.35Z"/><path class="cls-6" d="M413.07,248.45c0-5.87-4.76-10.64-10.64-10.64s-10.64,4.76-10.64,10.64,4.76,10.64,10.64,10.64,10.64-4.76,10.64-10.64Z"/><path d="M402.44,259.88c-6.3,0-11.42-5.13-11.42-11.43s5.13-11.43,11.42-11.43,11.42,5.13,11.42,11.43-5.12,11.43-11.42,11.43ZM402.44,238.6c-5.43,0-9.85,4.42-9.85,9.85s4.42,9.85,9.85,9.85,9.85-4.42,9.85-9.85-4.42-9.85-9.85-9.85Z"/><path class="cls-11" d="M510.62,315.86c34.59,47.22,9.65,91.27,30.41,210.28l-25.17,6.64-33.62-156.94s-16.72,48.45-27.73,72.05c-11.01,23.6-4.02,42.59-34.03,84.89l-21.03-9.09,52.44-207.83h58.73Z"/><path class="cls-11" d="M507.13,322.27c-.21,0-.43-.09-.58-.26-.7-.77-1.43-1.5-2.17-2.18-.32-.29-.35-.79-.05-1.11.3-.32.79-.35,1.12-.05.78.71,1.55,1.48,2.28,2.29.29.32.27.82-.05,1.11-.15.14-.34.2-.53.2Z"/><path class="cls-11" d="M533.38,510.54c-.36,0-.69-.25-.77-.62-.43-2.03-.85-4.15-1.24-6.31-.08-.43.21-.84.64-.92.43-.08.84.21.92.64.39,2.14.8,4.24,1.23,6.26.09.43-.18.85-.61.94-.06.01-.11.02-.17.02ZM531.09,497.94c-.38,0-.72-.28-.78-.67-.32-2.06-.62-4.2-.9-6.36-.06-.43.25-.83.68-.88.43-.06.83.25.88.68.28,2.14.58,4.27.89,6.32.07.43-.23.83-.66.9-.04,0-.08,0-.12,0ZM529.43,485.23c-.4,0-.74-.3-.78-.7-.22-2.06-.44-4.21-.64-6.39-.04-.43.28-.82.71-.86.42-.04.82.28.86.71.2,2.17.41,4.31.64,6.36.05.43-.27.82-.7.87-.03,0-.06,0-.09,0ZM528.26,472.48c-.41,0-.75-.31-.79-.73-.16-2.04-.31-4.2-.45-6.4-.03-.43.3-.81.74-.84.42-.03.81.3.84.74.14,2.2.29,4.34.45,6.38.03.43-.29.81-.73.85-.02,0-.04,0-.06,0ZM527.43,459.69c-.42,0-.77-.33-.79-.75-.11-2.14-.22-4.28-.32-6.42-.02-.44.32-.8.75-.82.44-.02.8.32.82.75.1,2.14.2,4.28.32,6.41.02.44-.31.81-.75.83-.01,0-.03,0-.04,0ZM526.85,446.87c-.42,0-.77-.33-.79-.76-.08-2.14-.16-4.27-.23-6.41-.01-.44.33-.8.76-.82.43-.03.8.33.82.76.07,2.13.15,4.27.23,6.4.02.44-.32.8-.76.82-.01,0-.02,0-.03,0ZM526.42,434.07c-.42,0-.78-.34-.79-.77-.06-2.14-.13-4.27-.19-6.39-.01-.44.33-.8.77-.81.43-.02.8.33.81.77.06,2.13.12,4.26.19,6.39.01.44-.33.8-.77.81,0,0-.02,0-.02,0ZM526.05,421.27c-.43,0-.78-.34-.79-.77-.06-2.14-.12-4.28-.19-6.4-.01-.44.33-.8.76-.81,0,0,.02,0,.03,0,.42,0,.78.34.79.76.07,2.12.13,4.26.19,6.4.01.44-.33.8-.77.81,0,0-.02,0-.02,0ZM525.65,408.46c-.42,0-.77-.34-.79-.76-.08-2.15-.15-4.28-.24-6.4-.02-.44.32-.8.76-.82.46-.02.8.32.82.76.09,2.12.17,4.26.24,6.41.02.44-.33.8-.76.82,0,0-.02,0-.03,0ZM525.12,395.66c-.42,0-.77-.33-.79-.75-.11-2.15-.22-4.28-.35-6.39-.03-.43.31-.81.74-.84.43-.03.81.31.84.74.12,2.02.24,4.18.35,6.41.02.44-.31.81-.75.83-.01,0-.03,0-.04,0ZM524.34,382.87c-.41,0-.76-.32-.79-.73-.16-2.21-.34-4.35-.53-6.37-.04-.43.28-.82.71-.86.44-.04.82.28.86.71.19,2.03.36,4.18.53,6.4.03.43-.29.81-.73.85-.02,0-.04,0-.06,0ZM523.16,370.11c-.4,0-.74-.3-.78-.7-.25-2.19-.52-4.32-.81-6.33-.06-.43.24-.83.67-.89.43-.06.83.24.89.67.29,2.03.56,4.17.82,6.38.05.43-.26.82-.69.87-.03,0-.06,0-.09,0ZM521.34,357.43c-.38,0-.71-.27-.78-.65-.39-2.16-.81-4.26-1.25-6.25-.09-.43.17-.85.6-.94.43-.09.85.17.94.6.45,2,.87,4.13,1.26,6.31.08.43-.21.84-.64.92-.05,0-.09.01-.14.01ZM518.51,344.95c-.34,0-.66-.23-.76-.57-.6-2.12-1.25-4.15-1.94-6.04-.15-.41.06-.86.47-1.01.41-.15.86.06,1.01.47.7,1.93,1.37,3.99,1.98,6.15.12.42-.12.86-.54.97-.07.02-.14.03-.22.03ZM514.1,332.95c-.3,0-.58-.17-.71-.45-.94-1.98-1.97-3.83-3.04-5.5-.24-.37-.13-.86.24-1.09.37-.23.86-.13,1.09.24,1.11,1.73,2.17,3.64,3.14,5.68.19.39.02.86-.37,1.05-.11.05-.23.08-.34.08Z"/><path class="cls-11" d="M535.61,519.73c-.35,0-.67-.23-.76-.58-.28-1.01-.55-2.04-.81-3.07-.11-.42.15-.85.57-.96.42-.1.85.15.96.57.26,1.02.52,2.03.8,3.04.11.42-.13.85-.55.97-.07.02-.14.03-.21.03Z"/><path class="cls-11" d="M479.09,370.17c-.11,0-.22-.02-.32-.07-.4-.18-.58-.64-.4-1.04.83-1.85,1.29-2.88,1.29-2.88.18-.4.65-.57,1.04-.4.4.18.58.65.4,1.04,0,0-.47,1.03-1.29,2.88-.13.29-.42.47-.72.47Z"/><path class="cls-11" d="M420.83,518.81c-.14,0-.29-.04-.42-.12-.37-.23-.48-.72-.24-1.09,1.06-1.67,2.11-3.44,3.13-5.25.21-.38.69-.52,1.07-.3.38.21.52.69.3,1.07-1.03,1.84-2.1,3.63-3.17,5.32-.15.24-.41.37-.67.37ZM426.85,508.08c-.12,0-.24-.03-.35-.08-.39-.19-.55-.67-.36-1.06.89-1.78,1.76-3.65,2.6-5.54.18-.4.64-.58,1.04-.4.4.18.58.64.4,1.04-.85,1.91-1.73,3.79-2.63,5.6-.14.28-.42.44-.71.44ZM431.86,496.85c-.1,0-.2-.02-.29-.06-.4-.16-.6-.62-.44-1.03.74-1.84,1.47-3.77,2.17-5.73.15-.41.6-.62,1.01-.47.41.15.62.6.47,1.01-.71,1.97-1.45,3.92-2.19,5.78-.12.31-.42.5-.73.5ZM436.04,485.27c-.08,0-.16-.01-.24-.04-.41-.13-.64-.58-.51-.99.62-1.92,1.23-3.89,1.81-5.86.12-.42.56-.66.98-.53.42.12.66.56.53.98-.58,1.98-1.2,3.97-1.83,5.9-.11.33-.42.55-.75.55ZM439.52,473.46c-.07,0-.14,0-.2-.03-.42-.11-.67-.54-.56-.97.52-1.94,1.02-3.94,1.51-5.95.1-.42.53-.68.95-.58.42.1.68.53.58.95-.49,2.02-1,4.03-1.52,5.99-.09.35-.41.59-.76.59ZM442.41,461.5c-.06,0-.11,0-.17-.02-.43-.09-.7-.51-.6-.94.48-2.2.88-4.13,1.21-5.7l.07-.32c.09-.43.51-.7.93-.61.43.09.7.51.61.93l-.07.32c-.33,1.58-.73,3.51-1.21,5.72-.08.37-.41.62-.77.62ZM445.42,449.56c-.09,0-.18-.01-.26-.04-.41-.14-.63-.6-.48-1.01.58-1.64,1.3-3.59,2.15-5.8.16-.41.61-.61,1.02-.45.41.16.61.61.45,1.02-.84,2.19-1.56,4.13-2.13,5.76-.11.32-.42.53-.74.53ZM449.82,438.04c-.1,0-.2-.02-.29-.06-.4-.16-.6-.62-.44-1.03.73-1.82,1.51-3.73,2.32-5.71.17-.4.63-.59,1.03-.43.4.17.6.63.43,1.03-.81,1.98-1.59,3.89-2.32,5.7-.12.31-.42.5-.73.5ZM454.5,426.65c-.1,0-.2-.02-.3-.06-.4-.17-.59-.63-.42-1.03.78-1.86,1.58-3.76,2.39-5.68.17-.4.63-.59,1.03-.42.4.17.59.63.42,1.03-.81,1.92-1.61,3.82-2.39,5.67-.13.3-.42.48-.73.48ZM459.3,415.3c-.1,0-.21-.02-.31-.06-.4-.17-.59-.64-.42-1.04.81-1.88,1.62-3.78,2.43-5.66.17-.4.64-.59,1.04-.41.4.17.58.64.41,1.04-.81,1.89-1.62,3.78-2.43,5.66-.13.3-.42.48-.73.48ZM464.18,403.99c-.1,0-.21-.02-.31-.07-.4-.17-.58-.64-.41-1.04.83-1.91,1.65-3.8,2.46-5.65.18-.4.64-.58,1.04-.41.4.17.58.64.41,1.04-.81,1.85-1.63,3.74-2.46,5.65-.13.3-.42.47-.72.47ZM469.11,392.69c-.11,0-.21-.02-.32-.07-.4-.18-.58-.64-.4-1.04.85-1.95,1.68-3.83,2.48-5.64.18-.4.64-.58,1.04-.4.4.18.58.64.4,1.04-.8,1.81-1.63,3.69-2.48,5.64-.13.3-.42.47-.72.47ZM474.08,381.42c-.11,0-.22-.02-.32-.07-.4-.18-.58-.64-.4-1.04.91-2.06,1.75-3.95,2.5-5.63.18-.4.64-.58,1.04-.4.4.18.58.64.4,1.04-.75,1.68-1.59,3.58-2.5,5.63-.13.29-.42.47-.72.47Z"/><path class="cls-11" d="M415.58,526.28c-.17,0-.34-.05-.49-.17-.34-.27-.4-.76-.14-1.11.63-.81,1.26-1.65,1.88-2.5.26-.35.75-.43,1.1-.18.35.26.43.75.18,1.1-.63.87-1.27,1.72-1.92,2.54-.16.2-.39.3-.62.3Z"/><path class="cls-1" d="M427.07,530.33l-10.14,19.23h-45.1c1.75-11.65,17.13,0,26.22-31.46l29.02,12.24Z"/><path class="cls-1" d="M503.98,549.56c-2.57-10.25,9.44-4.43,6.64-24.47l30.67-9.09,5.94,33.56h-43.26Z"/><path d="M482.25,376.63c-.37,0-.69-.26-.77-.63l-3.73-17.89c-.09-.43.18-.85.61-.93.43-.09.84.18.93.61l3.73,17.89c.09.43-.18.85-.61.93-.05.01-.11.02-.16.02Z"/><path class="cls-6" d="M530.05,540.95c-.12,0-.23-.03-.34-.08-14-6.78-20.71-.42-20.99-.15-.31.31-.81.3-1.12,0-.31-.31-.31-.81,0-1.11.31-.31,7.72-7.45,22.79-.15.39.19.56.66.37,1.05-.14.28-.42.45-.71.45Z"/><path d="M424.15,536.65c-.1,0-.2-.02-.3-.06l-28.17-11.56c-.4-.17-.6-.63-.43-1.03.17-.4.63-.6,1.03-.43l28.17,11.56c.4.17.6.63.43,1.03-.13.31-.42.49-.73.49Z"/><path d="M511.04,530.87c-.35,0-.67-.23-.76-.58-.11-.42.13-.85.56-.97l31.25-8.48c.42-.12.85.13.97.55.11.42-.13.85-.56.97l-31.25,8.48c-.07.02-.14.03-.21.03Z"/><path class="cls-8" d="M510.62,315.86c-31.46,20.98-58.73,0-58.73,0,6.76-21.5-7.23-33.62,14.33-55.06,0,0-.58-16.08,15.03-18.18,15.62-2.1,44.05-1.17,42.88,16.55-1.17,17.71-21.44,39.04-13.52,56.69Z"/><path class="cls-6" d="M478.51,243.17c10.43,16.93,30.94,0,30.94,0,0,0-8.16-.78-6.53-18.73,1.63-17.95-16.08-9.09-16.31-.93-.23,8.16-1.06,18.35-8.1,19.66Z"/><path d="M491.14,251.48c-.87,0-1.75-.07-2.62-.21-4.39-.73-7.99-3.31-10.68-7.69-.14-.22-.15-.5-.05-.73.11-.24.32-.41.58-.46,6.11-1.14,7.2-9.76,7.46-18.91.11-3.89,3.6-7.43,6.79-9.07,3.04-1.56,5.98-1.65,8.06-.25,1.71,1.15,3.63,3.89,3.04,10.34-1.53,16.81,5.75,17.86,5.82,17.87.31.04.58.26.67.56.09.3,0,.63-.25.83-.11.09-2.83,2.32-6.82,4.37-3.11,1.6-7.51,3.33-12,3.33ZM479.77,243.66c2.36,3.42,5.39,5.46,9,6.06,7.62,1.27,15.98-4.09,19-6.27-2.5-1.22-6.89-5.33-5.64-19.08.41-4.5-.4-7.57-2.35-8.89-1.59-1.07-3.94-.95-6.46.34-3.36,1.72-5.85,4.97-5.93,7.71-.18,6.29-.51,17.73-7.63,20.13Z"/><path d="M453.56,292.03c-.41,0-.76-.32-.79-.73-.8-11.02,2.76-18.89,5.9-23.56,3.4-5.07,6.97-7.5,7.12-7.6.36-.24.85-.15,1.09.21.24.36.15.85-.21,1.1-.14.09-13.79,9.56-12.32,29.73.03.43-.3.81-.73.84-.02,0-.04,0-.06,0Z"/><path d="M487.04,295.34c-.27,0-.54-.14-.68-.4l-7-12.14c-.22-.38-.09-.86.29-1.08.38-.22.86-.09,1.08.29l7,12.14c.22.38.09.86-.29,1.08-.12.07-.26.11-.39.11Z"/><path class="cls-12" d="M491.64,255.42c-.45,0-.89-.01-1.34-.05-6.28-.43-11.82-3.81-16.48-10.05-.26-.35-.19-.84.16-1.1.35-.26.84-.19,1.1.16,4.37,5.85,9.52,9.02,15.32,9.42,5.98.41,11.61-2.23,15.29-4.52,4.03-2.51,6.66-5.15,6.68-5.18.31-.31.81-.31,1.12,0,.31.31.31.81,0,1.12-.11.11-2.76,2.78-6.94,5.39-3.61,2.25-9.02,4.82-14.92,4.82Z"/><path class="cls-6" d="M493.99,226.77c11.71,1.15,29.22-49.18,6.15-52.67-23.07-3.5-25.12,50.81-6.15,52.67Z"/><path d="M494.38,227.58c-.16,0-.32,0-.47-.02-4.53-.45-8.21-3.66-10.65-9.29-5.09-11.76-3.4-30.07,3.62-39.17,3.52-4.57,8.15-6.57,13.37-5.77,9.07,1.37,13.31,9.92,11.62,23.44-1.77,14.18-10.09,30.82-17.49,30.83ZM498.02,174.73c-3.84,0-7.15,1.79-9.89,5.33-6.59,8.56-8.23,26.47-3.42,37.58,1.53,3.54,4.39,7.86,9.35,8.35h0c5.92.57,14.42-14.82,16.24-29.43.74-5.94,1.22-19.93-10.29-21.68-.68-.1-1.35-.15-2-.15Z"/><path d="M514.49,179.5c3.84,8.33,1.76,17.48-4.65,20.44-6.41,2.96-14.72-1.4-18.57-9.72-3.84-8.33-1.76-17.48,4.65-20.44,6.41-2.96,14.72,1.4,18.56,9.72Z"/><path class="cls-6" d="M515.67,207.32c-2.24,4.31-6.54,6.51-9.6,4.91-3.07-1.59-3.74-6.38-1.5-10.68s6.54-6.51,9.6-4.91c3.07,1.59,3.74,6.38,1.5,10.68Z"/><path d="M508.24,213.54c-.9,0-1.76-.2-2.54-.61-.39-.2-.54-.68-.34-1.06.2-.39.68-.54,1.06-.34,1.25.65,2.81.56,4.39-.25,1.67-.85,3.14-2.39,4.15-4.33,1.01-1.94,1.42-4.03,1.16-5.89-.25-1.76-1.07-3.08-2.32-3.73-1.25-.65-2.81-.56-4.39.25-1.67.85-3.14,2.39-4.15,4.33-.2.39-.68.54-1.06.34-.39-.2-.54-.68-.34-1.06,1.16-2.23,2.87-4.01,4.83-5.01,2.05-1.05,4.12-1.13,5.84-.24,1.72.89,2.84,2.64,3.16,4.91.31,2.18-.16,4.61-1.32,6.83-1.16,2.23-2.87,4.01-4.83,5.01-1.11.57-2.23.85-3.29.85Z"/><circle class="cls-2" cx="319.79" cy="338.66" r="37.49" transform="translate(-114.39 170.01) rotate(-25.41)"/><circle class="cls-6" cx="319.79" cy="338.66" r="29.14" transform="translate(-121.13 488.83) rotate(-65.45)"/><circle class="cls-2" cx="319.79" cy="338.66" r="20.93" transform="translate(-126.93 470.57) rotate(-63.09)"/><path class="cls-6" d="M332.17,340.23c.87-6.84-3.98-13.08-10.82-13.95-6.84-.87-13.08,3.98-13.95,10.82-.87,6.84,3.98,13.08,10.82,13.95,6.84.87,13.08-3.98,13.95-10.82Z"/><path class="cls-9" d="M324.77,339.29c.35-2.75-1.6-5.26-4.35-5.61-2.75-.35-5.26,1.6-5.61,4.35-.35,2.75,1.6,5.26,4.35,5.61,2.75.35,5.26-1.6,5.61-4.35Z"/><path d="M315.28,374.24c-20.74-2.62-35.48-21.64-32.86-42.38,2.62-20.74,21.64-35.48,42.38-32.86,20.74,2.62,35.48,21.64,32.86,42.38-2.62,20.74-21.64,35.48-42.38,32.86ZM324.7,299.86c-20.27-2.57-38.86,11.84-41.42,32.12-2.57,20.27,11.84,38.86,32.12,41.42,20.27,2.57,38.86-11.84,41.42-32.12,2.57-20.27-11.84-38.86-32.12-41.42Z"/><path class="cls-13" d="M300.96,295.46c-.14-.02-.27-.11-.34-.25l-3.96-8.84c-.1-.22,0-.47.22-.57.22-.1.47,0,.57.22l3.96,8.84c.1.22,0,.47-.22.57-.07.03-.15.04-.23.03Z"/><path class="cls-13" d="M328.73,293.33c-.23-.03-.4-.24-.37-.48l1.45-11.44c.03-.23.24-.4.48-.37.23.03.4.24.37.48l-1.45,11.44c-.03.23-.24.4-.48.37Z"/><path class="cls-13" d="M314.11,292.54c-.2-.03-.36-.19-.37-.4l-.35-5.62c-.01-.24.16-.44.4-.45.23-.01.44.16.45.4l.35,5.62c.01.24-.16.44-.4.45-.03,0-.05,0-.08,0Z"/><path class="cls-13" d="M344.25,297.58c-.08-.01-.16-.04-.23-.1-.18-.16-.2-.43-.04-.6l4.38-5.01c.16-.18.43-.2.6-.04.18.16.2.43.04.6l-4.38,5.01c-.1.11-.24.16-.38.14Z"/><path class="cls-13" d="M273.95,350.05c-.16-.02-.29-.12-.35-.28-.08-.22.04-.47.26-.55l5.62-1.98c.22-.08.47.04.55.26.08.22-.04.47-.26.55l-5.62,1.98c-.06.02-.13.03-.2.02Z"/><path class="cls-13" d="M277.79,371.89c-.11-.01-.22-.07-.29-.17-.14-.19-.1-.46.09-.6l9.31-6.99c.19-.14.46-.1.6.09.14.19.1.46-.09.6l-9.31,6.99c-.09.07-.2.1-.31.08Z"/><path class="cls-13" d="M290.61,389.38c-.06,0-.12-.03-.17-.06-.2-.13-.26-.39-.13-.59l8.36-13.2c.13-.2.39-.26.59-.13.2.13.26.39.13.59l-8.36,13.2c-.09.14-.26.22-.42.2Z"/><path class="cls-13" d="M315.61,397.05c-.23-.03-.4-.24-.37-.48l2.03-16.03c.03-.23.24-.4.48-.37.23.03.4.24.37.48l-2.03,16.03c-.03.23-.24.4-.48.37Z"/><path class="cls-13" d="M355.35,374.85c-.08-.01-.16-.04-.23-.1l-6.27-5.45c-.18-.15-.2-.43-.04-.6.15-.18.43-.2.6-.04l6.27,5.45c.18.16.2.43.04.6-.1.11-.24.16-.38.14Z"/><path class="cls-13" d="M351.67,385.33c-.13-.02-.25-.09-.32-.21l-6.93-11.82c-.12-.2-.05-.47.15-.59.2-.12.47-.05.59.15l6.93,11.82c.12.2.05.47-.15.59-.09.05-.18.07-.27.06Z"/><path class="cls-13" d="M323.06,389.85c-.2-.02-.36-.18-.37-.39l-.68-8.23c-.02-.24.16-.44.39-.46.24-.02.44.16.46.39l.68,8.23c.02.24-.16.44-.39.46-.03,0-.06,0-.09,0Z"/><polygon class="cls-6" points="278.37 314.35 263.7 305.23 265.23 293.91 279.9 303.03 278.37 314.35"/><polygon class="cls-6" points="278.37 314.35 263.7 305.23 254.22 311.61 268.89 320.73 278.37 314.35"/><path d="M316.84,338.73c-.06,0-.12-.03-.17-.06l-53.19-33.08c-.2-.12-.26-.39-.14-.59s.39-.26.59-.14l53.19,33.08c.2.12.26.39.14.59-.09.15-.26.22-.42.2Z"/><path d="M274.62,312.48s0,0,0,0c-.23-.03-.4-.25-.37-.48l1.53-11.32c.03-.23.24-.4.48-.37,0,0,0,0,0,0,.23.03.4.25.37.48l-1.53,11.32c-.03.23-.24.4-.48.37Z"/><path d="M271.12,310.3s0,0,0,0c-.23-.03-.4-.25-.37-.48l1.53-11.32c.03-.23.25-.39.48-.37.23.03.4.25.37.48l-1.53,11.32c-.03.23-.24.4-.48.37Z"/><path d="M265,318.77c-.12-.01-.23-.08-.3-.19-.13-.2-.08-.46.12-.59l9.48-6.38c.2-.13.46-.08.59.12.13.2.08.46-.12.59l-9.48,6.38c-.09.06-.19.08-.29.07Z"/><path d="M268.83,321.15c-.06,0-.12-.03-.17-.06l-14.67-9.12c-.2-.12-.26-.39-.14-.59.13-.2.39-.26.59-.14l14.43,8.97,9.25-6.22c.2-.13.46-.08.59.12.13.2.08.46-.12.59l-9.48,6.38c-.09.06-.19.08-.29.07Z"/></g></svg>