<?xml version="1.0" encoding="UTF-8"?><svg id="Calque_2" xmlns="http://www.w3.org/2000/svg" viewBox="0 0 541.82 577.37"><defs><style>.cls-1{fill:#f37a3e;}.cls-2{fill:#4666c8;}.cls-3{fill:#d7e4f2;}.cls-4{fill:#fff;}.cls-5{fill:#4666c7;}.cls-6{fill:#f47a3e;}.cls-7{fill:none;stroke:#000;stroke-miterlimit:10;stroke-width:2px;}.cls-8{fill:#89b9e6;}</style></defs><g id="text"><ellipse class="cls-3" cx="265.83" cy="551.26" rx="253.66" ry="26.11"/><path class="cls-3" d="M453.54,503.49c-40.87,9.58-81.14-15.65-122.63-22.05-39.74-6.13-79.91,5.25-118.31,17.18-38.4,11.93-77.86,24.68-117.93,21.33-40.07-3.35-81.42-27.28-91.9-66.1-10.81-40.03,13.06-80.44,19.16-121.46,6.39-42.93-6.92-85.98-13.71-128.85-6.79-42.87-5.34-91.57,24.3-123.28,29.58-31.66,78.13-36.46,121.16-31.45,43.04,5.01,85.83,17.72,128.92,13.2,30.85-3.23,60.09-15.17,90.55-21.02,30.46-5.85,64.87-4.55,88.65,15.37,20.98,17.57,29.44,46.31,30.36,73.65.92,27.35-4.57,54.47-6.34,81.78-4.11,63.61,8.09,119.55,27.13,182.13,13.17,43.3-11.78,98.41-59.43,109.58Z"/><path d="M42.16,233.31c-.33,0-.6-.27-.6-.6v-8.85c0-.33.27-.6.6-.6s.6.27.6.6v8.85c0,.33-.27.6-.6.6Z"/><path d="M42.16,248.15c-.33,0-.6-.27-.6-.6v-8.85c0-.33.27-.6.6-.6s.6.27.6.6v8.85c0,.33-.27.6-.6.6Z"/><path d="M54.01,236.3h-8.85c-.33,0-.6-.27-.6-.6s.27-.6.6-.6h8.85c.33,0,.6.27.6.6s-.27.6-.6.6Z"/><path d="M39.17,236.3h-8.85c-.33,0-.6-.27-.6-.6s.27-.6.6-.6h8.85c.33,0,.6.27.6.6s-.27.6-.6.6Z"/><path d="M314.71,361.4c-.15,0-.31-.06-.42-.18l-11.08-11.08c-.23-.23-.23-.61,0-.85.23-.23.61-.23.85,0l11.08,11.08c.23.23.23.61,0,.85-.12.12-.27.18-.42.18Z"/><path d="M303.63,361.4c-.15,0-.31-.06-.42-.18-.23-.23-.23-.61,0-.85l11.08-11.08c.23-.23.61-.23.85,0,.23.23.23.61,0,.85l-11.08,11.08c-.12.12-.27.18-.42.18Z"/><path class="cls-8" d="M493.93,478.3c-.16,0-.32-.06-.44-.19-.23-.24-.21-.62.03-.85,12-11.27,25.24-34.16,20.18-79.23-.04-.33.2-.63.53-.66.33-.04.63.2.66.53,2.82,25.15,1.55,59.48-20.55,80.24-.12.11-.26.16-.41.16Z"/><path class="cls-8" d="M509.45,420.85s-.01,0-.02,0c-.33-.01-.59-.29-.58-.62.94-28.35-5.05-45.23-11.39-63.11-6.01-16.95-12.23-34.47-12.04-62.63,0-.33.27-.6.6-.6h0c.33,0,.6.27.6.6-.18,27.94,6,45.37,11.98,62.22,6.1,17.19,12.4,34.97,11.46,63.55-.01.32-.28.58-.6.58Z"/><path class="cls-8" d="M35.04,488.98c-.11,0-.22-.03-.31-.09-25.51-15.67-30.03-41.52-29.32-60.46.76-20.45,7.62-37.43,7.69-37.6.13-.31.48-.45.78-.33.31.13.45.48.33.78-.07.17-6.86,16.99-7.6,37.23-.44,11.86,1.25,22.55,5.02,31.78,4.7,11.52,12.69,20.8,23.73,27.58.28.17.37.54.2.82-.11.18-.31.29-.51.29Z"/><path class="cls-8" d="M5.94,396.27c-.08,0-.16-.02-.24-.05-.3-.13-.44-.49-.3-.79.2-.46,20.2-46.15,17.49-94.36-.02-.33.23-.61.56-.63.34-.02.61.23.63.56,2.73,48.51-17.39,94.46-17.59,94.91-.1.22-.32.36-.55.36Z"/><rect class="cls-8" x="179.08" y="366.2" width="14.32" height="14.32" transform="translate(581.93 505.67) rotate(135)"/><path class="cls-4" d="M260.5,343.51l-70.31-135.39,51.48-6.24,29.41,107.02s-.93,17.65-10.58,34.61Z"/><path class="cls-8" d="M190.18,208.12c-10.22-17.54,45.24-28.94,51.48-6.24,5.18,18.85-40.49,25.11-51.48,6.24Z"/><path d="M270.56,305.95c-.05.07-.12.14-.2.17-.2.08-.43,0-.53-.2l-44.83-86.84c-11.69,2.22-31.01-.83-35.2-10.79-2.3-5.48-.46-10,5.2-12.71,10.3-4.95,31.49-2.56,36.17,6.05,1.68,3.1,1.04,5.71-1.81,7.36-6.76,3.89-24.94,1.51-29-5.16-1.33-2.18-.99-3.76-.47-4.7,1.1-2.01,4.06-3.21,7.91-3.27,4.73-.07,11.38,1.75,14.54,7.11.86,1.46.61,2.32.24,2.78-.67.85-2.21,1.01-4.13.42-3.63-1.1-7.45-4.4-7.97-9.31-.93-.12-1.83-.17-2.67-.16-3.5.05-6.25,1.13-7.18,2.83-.6,1.08-.45,2.38.45,3.85,3.8,6.22,21.51,8.52,27.86,4.87,2.46-1.42,2.96-3.51,1.49-6.22-3.83-7.06-23.3-11.34-35.06-5.69-3.67,1.76-7.48,5.21-4.79,11.62,1.78,4.22,6.8,7.59,14.14,9.49,6.6,1.71,14.24,1.98,20.43.74.18-.04.37.05.46.22l43.12,83.53-27.46-99.95c-.06-.23.07-.46.3-.52.23-.06.46.07.52.3l28.53,103.85c.03.12.01.24-.05.34ZM211.35,196.99c.58,4.38,4.16,7.39,7.35,8.36,1.5.46,2.79.4,3.22-.14.29-.36.18-1.01-.31-1.83-2.25-3.82-6.42-5.72-10.26-6.4Z"/><path class="cls-2" d="M123.96,130.75c-11.32,0-22.65-3.35-31.91-10.05-4.67-3.39-8.81-7.52-12.8-11.53-1.54-1.55-3.11-3.12-4.72-4.66-4.41,4.41-9.89,8.33-16.28,11.62-8.65,4.46-20.21,6.7-26.69-.39-2.94-3.21-3.87-7.79-2.56-12.57,1.64-5.99,6.47-11.16,12.01-12.84,8.72-2.66,19.35.4,29.15,8.38,1.49,1.21,2.93,2.49,4.34,3.81,2.75-2.91,5.03-6.01,6.79-9.27,5.43-10.09,5.64-22.2.53-30.85-5.61-9.5-18.18-14.07-27.45-9.98-.36.16-.78,0-.94-.36-.16-.36,0-.78.36-.94,10.07-4.45,23.19.29,29.25,10.56,5.36,9.07,5.16,21.73-.5,32.24-1.81,3.37-4.17,6.58-7.01,9.57,1.62,1.54,3.19,3.12,4.74,4.67,3.96,3.96,8.05,8.06,12.63,11.38,18.13,13.13,44.38,13.04,62.43-.19,18.05-13.24,26.01-38.26,18.94-59.49-.12-.37.08-.77.45-.9.37-.13.78.08.9.45,7.26,21.8-.91,47.49-19.44,61.08-9.31,6.83-20.76,10.25-32.2,10.25ZM47.53,90.8c-2.01,0-4.05.27-6.11.89-5.09,1.55-9.53,6.32-11.05,11.86-1.19,4.36-.4,8.35,2.24,11.23,5.94,6.49,16.81,4.3,24.99.08,6.24-3.22,11.6-7.04,15.9-11.33-1.38-1.29-2.79-2.54-4.24-3.72-3.68-3-12.25-9.02-21.73-9.02Z"/><path class="cls-8" d="M134.19,324.42h42.35l9.8,45.29h-59.34l-6.12-28.3c-2.03-9.38,3.93-16.99,13.32-16.99Z"/><path d="M186.34,370.61h-59.34c-.42,0-.78-.29-.87-.7l-6.12-28.3c-1.06-4.88-.11-9.46,2.66-12.9,2.69-3.33,6.78-5.17,11.52-5.17h42.35c.42,0,.78.29.87.7l9.8,45.29c.06.26,0,.54-.18.75-.17.21-.42.33-.69.33ZM127.71,368.83h57.52l-9.41-43.51h-41.64c-4.19,0-7.79,1.6-10.14,4.51-2.43,3.01-3.25,7.06-2.31,11.4l5.97,27.6Z"/><polygon class="cls-8" points="176.54 324.42 235.89 324.42 245.68 369.72 186.34 369.72 176.54 324.42"/><path d="M245.68,370.61h-59.34c-.42,0-.78-.29-.87-.7l-9.8-45.29c-.06-.26,0-.54.18-.75.17-.21.42-.33.69-.33h59.34c.42,0,.78.29.87.7l9.79,45.29c.06.26,0,.54-.18.75-.17.21-.42.33-.69.33ZM187.05,368.83h57.52l-9.41-43.51h-57.52l9.41,43.51Z"/><polygon class="cls-8" points="235.89 324.42 295.23 324.42 305.02 369.72 245.68 369.72 235.89 324.42"/><path d="M305.02,370.61h-59.34c-.42,0-.78-.29-.87-.7l-9.8-45.29c-.06-.26,0-.54.18-.75.17-.21.42-.33.69-.33h59.34c.42,0,.78.29.87.7l9.79,45.29c.06.26,0,.54-.18.75s-.42.33-.69.33ZM246.4,368.83h57.52l-9.41-43.51h-57.52l9.41,43.51Z"/><path class="cls-8" d="M295.23,324.42h42.35c9.38,0,18.64,7.61,20.66,16.99l6.12,28.3h-59.34l-9.8-45.29Z"/><path d="M364.37,370.61h-59.34c-.42,0-.78-.29-.87-.7l-9.79-45.29c-.06-.26,0-.54.18-.75.17-.21.42-.33.69-.33h42.35c9.76,0,19.42,7.94,21.53,17.69l6.12,28.3c.06.26,0,.54-.18.75-.17.21-.42.33-.69.33ZM305.74,368.83h57.52l-5.89-27.22c-1.94-8.98-10.82-16.29-19.79-16.29h-41.25l9.41,43.51Z"/><polygon class="cls-4" points="126.99 369.72 186.34 369.72 197.97 423.5 138.63 423.5 126.99 369.72"/><path d="M197.97,424.39h-59.34c-.42,0-.78-.29-.87-.7l-11.63-53.79c-.06-.26,0-.54.18-.75.17-.21.42-.33.69-.33h59.34c.42,0,.78.29.87.7l11.63,53.79c.06.26,0,.54-.18.75s-.42.33-.69.33ZM139.34,422.61h57.52l-11.25-52.01h-57.52l11.25,52.01Z"/><polygon class="cls-4" points="186.34 369.72 245.68 369.72 257.31 423.5 197.97 423.5 186.34 369.72"/><path d="M257.31,424.39h-59.34c-.42,0-.78-.29-.87-.7l-11.63-53.79c-.06-.26,0-.54.18-.75.17-.21.42-.33.69-.33h59.34c.42,0,.78.29.87.7l11.63,53.79c.06.26,0,.54-.18.75-.17.21-.42.33-.69.33ZM198.69,422.61h57.52l-11.25-52.01h-57.52l11.25,52.01Z"/><polygon class="cls-4" points="245.68 369.72 305.02 369.72 316.66 423.5 257.31 423.5 245.68 369.72"/><path d="M316.66,424.39h-59.34c-.42,0-.78-.29-.87-.7l-11.63-53.79c-.06-.26,0-.54.18-.75.17-.21.42-.33.69-.33h59.34c.42,0,.78.29.87.7l11.63,53.79c.06.26,0,.54-.18.75-.17.21-.42.33-.69.33ZM258.03,422.61h57.52l-11.25-52.01h-57.52l11.25,52.01Z"/><polygon class="cls-4" points="305.02 369.72 364.37 369.72 376 423.5 316.66 423.5 305.02 369.72"/><path d="M376,424.39h-59.34c-.42,0-.78-.29-.87-.7l-11.63-53.79c-.06-.26,0-.54.18-.75.17-.21.42-.33.69-.33h59.34c.42,0,.78.29.87.7l11.63,53.79c.06.26,0,.54-.18.75-.17.21-.42.33-.69.33ZM317.37,422.61h57.52l-11.25-52.01h-57.52l11.25,52.01Z"/><polygon class="cls-4" points="138.63 423.5 197.97 423.5 209.6 477.29 150.26 477.29 138.63 423.5"/><path d="M209.6,478.18h-59.34c-.42,0-.78-.29-.87-.7l-11.63-53.79c-.06-.26,0-.54.18-.75.17-.21.42-.33.69-.33h59.34c.42,0,.78.29.87.7l11.63,53.79c.06.26,0,.54-.18.75s-.42.33-.69.33ZM150.98,476.4h57.52l-11.25-52.01h-57.52l11.25,52.01Z"/><polygon class="cls-4" points="197.97 423.5 257.31 423.5 268.95 477.29 209.6 477.29 197.97 423.5"/><path d="M268.95,478.18h-59.34c-.42,0-.78-.29-.87-.7l-11.63-53.79c-.06-.26,0-.54.18-.75.17-.21.42-.33.69-.33h59.34c.42,0,.78.29.87.7l11.63,53.79c.06.26,0,.54-.18.75s-.42.33-.69.33ZM210.32,476.4h57.52l-11.25-52.01h-57.52l11.25,52.01Z"/><polygon class="cls-4" points="257.31 423.5 316.66 423.5 328.29 477.29 268.95 477.29 257.31 423.5"/><path d="M328.29,478.18h-59.34c-.42,0-.78-.29-.87-.7l-11.63-53.79c-.06-.26,0-.54.18-.75.17-.21.42-.33.69-.33h59.34c.42,0,.78.29.87.7l11.63,53.79c.06.26,0,.54-.18.75s-.42.33-.69.33ZM269.66,476.4h57.52l-11.25-52.01h-57.52l11.25,52.01Z"/><polygon class="cls-4" points="316.66 423.5 376 423.5 387.63 477.29 328.29 477.29 316.66 423.5"/><path d="M387.63,478.18h-59.34c-.42,0-.78-.29-.87-.7l-11.63-53.79c-.06-.26,0-.54.18-.75.17-.21.42-.33.69-.33h59.34c.42,0,.78.29.87.7l11.63,53.79c.06.26,0,.54-.18.75s-.42.33-.69.33ZM329.01,476.4h57.52l-11.25-52.01h-57.52l11.25,52.01Z"/><path class="cls-4" d="M150.26,477.29h59.34l11.63,53.79h-42.35c-9.38,0-18.63-7.61-20.66-16.99l-7.96-36.8Z"/><path d="M221.23,531.96h-42.35c-9.76,0-19.42-7.94-21.53-17.69l-7.96-36.8c-.06-.26,0-.54.18-.75.17-.21.42-.33.69-.33h59.34c.42,0,.78.29.87.7l11.63,53.79c.06.26,0,.54-.18.75-.17.21-.42.33-.69.33ZM151.36,478.18l7.72,35.72c1.94,8.98,10.82,16.29,19.79,16.29h41.25l-11.25-52.01h-57.52Z"/><polygon class="cls-4" points="209.6 477.29 268.95 477.29 280.58 531.07 221.23 531.07 209.6 477.29"/><path d="M280.58,531.96h-59.34c-.42,0-.78-.29-.87-.7l-11.63-53.79c-.06-.26,0-.54.18-.75.17-.21.42-.33.69-.33h59.34c.42,0,.78.29.87.7l11.63,53.79c.06.26,0,.54-.18.75-.17.21-.42.33-.69.33ZM221.95,530.18h57.52l-11.25-52.01h-57.52l11.25,52.01Z"/><polygon class="cls-4" points="268.95 477.29 328.29 477.29 339.92 531.07 280.58 531.07 268.95 477.29"/><path d="M339.92,531.96h-59.34c-.42,0-.78-.29-.87-.7l-11.63-53.79c-.06-.26,0-.54.18-.75.17-.21.42-.33.69-.33h59.34c.42,0,.78.29.87.7l11.63,53.79c.06.26,0,.54-.18.75-.17.21-.42.33-.69.33ZM281.3,530.18h57.52l-11.25-52.01h-57.52l11.25,52.01Z"/><path class="cls-4" d="M328.29,477.29h59.34l7.96,36.8c2.03,9.38-3.93,16.99-13.32,16.99h-42.35l-11.63-53.79Z"/><path d="M382.28,531.96h-42.35c-.42,0-.78-.29-.87-.7l-11.63-53.79c-.06-.26,0-.54.18-.75s.42-.33.69-.33h59.34c.42,0,.78.29.87.7l7.96,36.8c1.06,4.88.11,9.46-2.66,12.9-2.69,3.33-6.78,5.17-11.52,5.17ZM340.64,530.18h41.64c4.19,0,7.79-1.6,10.14-4.51,2.43-3.01,3.25-7.06,2.31-11.4l-7.81-36.1h-57.52l11.25,52.01Z"/><path class="cls-2" d="M228.19,396.61c-.76-3.51-4.22-6.36-7.74-6.36s-5.75,2.85-4.99,6.36c.76,3.51,4.22,6.36,7.74,6.36s5.75-2.85,4.99-6.36Z"/><path class="cls-2" d="M296.17,450.39c-.76-3.51-4.22-6.36-7.74-6.36s-5.75,2.85-4.99,6.36c.76,3.51,4.22,6.36,7.74,6.36s5.75-2.85,4.99-6.36Z"/><path class="cls-6" d="M239.82,450.39c-.76-3.51-4.22-6.36-7.74-6.36s-5.75,2.85-4.99,6.36c.76,3.51,4.22,6.36,7.74,6.36s5.75-2.85,4.99-6.36Z"/><path class="cls-6" d="M346.87,396.61c-.76-3.51-4.22-6.36-7.74-6.36s-5.75,2.85-4.99,6.36c.76,3.51,4.22,6.36,7.74,6.36s5.75-2.85,4.99-6.36Z"/><path class="cls-6" d="M251.45,504.18c-.76-3.51-4.22-6.36-7.74-6.36s-5.75,2.85-4.99,6.36,4.22,6.36,7.74,6.36,5.75-2.85,4.99-6.36Z"/><path class="cls-2" d="M370.94,504.18c-.76-3.51-4.22-6.36-7.74-6.36s-5.75,2.85-4.99,6.36c.76,3.51,4.22,6.36,7.74,6.36s5.75-2.85,4.99-6.36Z"/><path class="cls-8" d="M276.93,379.45c-10.28.02-16.98,8.05-14.97,17.95s11.98,17.9,22.26,17.88c10.28-.02,16.98-8.05,14.97-17.95-2.01-9.89-11.98-17.9-22.26-17.88ZM283.53,411.88c-8.33.02-16.4-6.47-18.03-14.48s3.8-14.52,12.13-14.54c8.33-.02,16.4,6.47,18.03,14.48,1.63,8.01-3.8,14.52-12.13,14.54Z"/><polygon class="cls-8" points="281.67 401.88 279.86 404.05 271.69 397.49 273.5 395.32 281.67 401.88"/><polygon class="cls-8" points="279.81 404.01 277.12 401.85 286.69 390.38 289.38 392.54 279.81 404.01"/><circle class="cls-4" cx="202.39" cy="208.4" r="13.63"/><path d="M202.39,223.13c-8.12,0-14.72-6.61-14.72-14.72s6.6-14.72,14.72-14.72,14.72,6.61,14.72,14.72-6.61,14.72-14.72,14.72ZM202.39,195.87c-6.91,0-12.54,5.62-12.54,12.54s5.62,12.54,12.54,12.54,12.54-5.62,12.54-12.54-5.62-12.54-12.54-12.54Z"/><polygon points="162.24 321.14 175.63 538.01 193.77 558.51 141.79 558.51 118.87 404.76 75.5 558.51 32.14 558.51 51.85 534.86 82.33 318.47 162.24 321.14"/><path class="cls-5" d="M62.36,116.97l50.59,93.6s43.76,1.01,50.86,5.74c7.1,4.73,26.36,35.57,26.36,35.57l3.39-29.39,24.02-9.33s13.28,66.88-17.58,79.97c-17.35,7.36-31.45-18.47-31.45-18.47l.53,43.8s-47.83,22.08-86.73,0l4.2-67.46-54.4-116.2,30.22-17.83Z"/><path class="cls-4" d="M118.09,210.74c12.6,28.71,32.93,2.43,32.93,2.43,0,0-8.76.68-9.82-16.22l-17.35-5.62s1.6,16.46-5.77,19.42Z"/><path d="M133.11,225.25c-.52,0-1.05-.03-1.58-.1-5.83-.72-10.69-5.42-14.45-13.98-.12-.27-.12-.58-.01-.85.11-.27.33-.49.61-.6,5.41-2.17,5.51-13.94,5.09-18.29-.04-.37.12-.73.4-.96.29-.23.67-.3,1.02-.19l17.35,5.62c.43.14.73.52.75.97.96,15.45,8.33,15.21,8.65,15.19.42-.02.84.2,1.04.58.2.38.17.84-.1,1.18-.38.49-8.95,11.42-18.78,11.42ZM119.52,211.25c3.35,7.2,7.48,11.15,12.28,11.74,7.22.89,14.33-5.96,17.12-9.04-.94-.29-2.1-.83-3.26-1.84-3.12-2.71-4.97-7.53-5.49-14.35l-15.11-4.9c.19,4.17.1,14.97-5.54,18.38Z"/><circle class="cls-4" cx="43.99" cy="120.24" r="14.57" transform="translate(-14.36 6.28) rotate(-7.02)"/><path d="M43.99,135.9c-8.64,0-15.66-7.03-15.66-15.66s7.03-15.66,15.66-15.66,15.66,7.03,15.66,15.66-7.03,15.66-15.66,15.66ZM43.99,106.76c-7.43,0-13.47,6.05-13.47,13.48s6.04,13.48,13.47,13.48,13.48-6.05,13.48-13.48-6.05-13.48-13.48-13.48Z"/><path class="cls-4" d="M146.32,206.55c21.55-8.39,5.5-66.03-18.77-54.63-24.27,11.4-9.26,65.54,18.77,54.63Z"/><path d="M139.18,209.04c-8.77,0-16.7-6.08-21.36-16.94-6.32-14.74-4.57-34.67,9.27-41.17,5.49-2.58,11.04-2.01,16.05,1.65,9.48,6.92,15.93,24.76,14.08,38.94-1.06,8.13-4.79,13.83-10.49,16.05h0c-2.54.99-5.07,1.47-7.54,1.47ZM133.86,151.52c-1.92,0-3.87.46-5.84,1.39-12.66,5.95-14.11,24.53-8.19,38.33,4.34,10.13,13.48,19.2,26.1,14.29h0c6.31-2.46,8.44-9.13,9.12-14.3,1.76-13.49-4.28-30.38-13.2-36.89-2.58-1.88-5.25-2.83-7.99-2.83ZM146.32,206.55h0,0Z"/><path d="M130.34,186.68c5.61-.67,0-25.9,0-25.9,0,0,16.83-2.8,20.68-5.61,3.85-2.8,3.5-13.32-6.66-15.77-10.16-2.45-37.68,12.26-31.48,22.08,0,0-1.95,15.77,2.5,27.16l14.96-1.96Z"/><path class="cls-4" d="M113.18,190.25c1.18,5.12,5.28,8.55,9.15,7.66,3.87-.89,6.04-5.77,4.86-10.89-1.18-5.12-5.28-8.55-9.15-7.66-3.87.89-6.04,5.77-4.86,10.89Z"/><path d="M121.06,199.15c-1.73,0-3.48-.67-5.02-1.97-1.91-1.6-3.3-3.97-3.93-6.68-.63-2.71-.41-5.45.6-7.72,1.06-2.38,2.86-3.97,5.08-4.48,2.21-.51,4.53.13,6.53,1.8,1.91,1.6,3.31,3.97,3.93,6.68.14.59-.23,1.18-.82,1.31-.59.14-1.18-.23-1.31-.82-.52-2.25-1.66-4.2-3.2-5.49-1.46-1.22-3.1-1.7-4.63-1.34-1.53.35-2.8,1.5-3.57,3.24-.82,1.84-.99,4.09-.47,6.34.52,2.25,1.66,4.2,3.2,5.49,1.46,1.22,3.1,1.7,4.63,1.34.59-.14,1.18.23,1.31.82.14.59-.23,1.18-.82,1.31-.5.11-1,.17-1.51.17Z"/><path class="cls-2" d="M363.79,162.74c-5.94,0-11.8-1.88-16.24-5.31-10.16-7.85-14.31-22.7-10.1-36.13,3.72-11.88,13.34-22.12,26.39-28.11,1.24-.57,2.51-1.1,3.8-1.6-1.22-2.81-2.26-5.69-2.99-8.68-3.99-16.29,2.05-34.38,15.01-45.01.26-.21.63-.17.84.08.21.26.17.63-.08.84-12.62,10.35-18.49,27.95-14.61,43.8.72,2.93,1.74,5.78,2.95,8.55,9.54-3.45,20.61-4.97,33.64-4.63.36,0,.73.02,1.1.03,3.85-6.01,9.98-11.2,17.6-14.77,15.99-7.49,30.76-7.56,43.91-.19.29.16.39.53.23.82-.16.29-.53.39-.82.23-12.8-7.16-27.2-7.09-42.82.23-7.17,3.36-12.97,8.18-16.72,13.74,6.45.31,13.51,1.31,19.51,4.94,5.98,3.62,11.57,11.27,9.71,19.49-1,4.41-4.29,8.09-9.02,10.1-5.36,2.28-11.53,1.99-16.09-.77-8.43-5.09-12.16-16.81-8.66-27.27.61-1.84,1.43-3.63,2.44-5.37-.14,0-.27,0-.41-.01-12.84-.33-23.74,1.15-33.12,4.53,2.07,4.52,4.6,8.86,7.09,13.12,2.13,3.65,4.33,7.42,6.22,11.25,3.12,6.34,4.99,12.84,5.41,18.78.51,7.13-1.04,13.22-4.6,18.1-3.53,4.83-9.1,8.01-15.69,8.94-1.29.18-2.59.27-3.88.27ZM368.13,92.69c-1.29.49-2.56,1.02-3.79,1.59-12.74,5.85-22.12,15.83-25.75,27.38-4,12.75.08,27.39,9.69,34.82,5.15,3.98,12.34,5.78,19.22,4.8,6.27-.89,11.55-3.89,14.89-8.46,6.22-8.5,5.88-21.83-.91-35.64-1.87-3.8-4.06-7.55-6.18-11.18-2.52-4.31-5.08-8.71-7.18-13.31ZM404.15,87.81c-1.12,1.84-2.02,3.74-2.67,5.7-3.27,9.78.31,21.14,8.14,25.87,4.24,2.56,9.99,2.82,15,.69,4.37-1.86,7.4-5.24,8.32-9.26,1.66-7.3-3.35-14.68-9.16-18.2-5.99-3.63-13.16-4.53-19.63-4.8Z"/><polygon class="cls-4" points="445.46 424.78 471.85 531.64 496.15 531.64 471.53 413.2 445.46 424.78"/><path d="M496.15,532.73h-24.3c-.5,0-.94-.34-1.06-.83l-26.39-106.85c-.13-.51.13-1.05.62-1.26l26.07-11.59c.3-.13.65-.12.94.03.29.15.5.43.57.75l24.62,118.44c.07.32-.01.66-.22.91-.21.26-.52.4-.85.4ZM472.7,530.54h22.1l-24.07-115.79-23.99,10.66,25.97,105.13Z"/><polygon class="cls-4" points="413.59 426.96 396.3 531.64 373.73 531.23 384.59 426.96 413.59 426.96"/><path d="M396.3,532.73h-.02l-22.57-.4c-.31,0-.6-.14-.8-.37-.2-.23-.3-.53-.27-.84l10.86-104.28c.06-.56.53-.98,1.09-.98h29.01c.32,0,.63.14.83.39.21.25.3.57.24.89l-17.3,104.68c-.09.53-.54.92-1.08.92ZM374.94,530.16l20.43.36,16.93-102.48h-26.73l-10.64,102.11Z"/><path d="M447.73,159.13c4.31,4.17,6.5,10,8.65,15.6,2.15,5.6,4.55,11.4,9.12,15.28,7.23,6.14,17.7,5.88,26.84,8.41,15.17,4.2,27.47,17.41,30.58,32.85,3.11,15.43-3.11,32.38-15.47,42.13-9.52,7.51-21.7,10.63-33.58,13.08-12.58,2.59-25.62,4.64-38.21,2.1-12.59-2.54-24.79-10.56-29.01-22.69-3.15-9.04-1.57-19.02.87-28.28,2.44-9.26,5.72-18.45,5.9-28.03.13-6.93-1.37-13.77-2.21-20.65-.83-6.88-.94-14.11,1.82-20.46,5.24-12.07,24.29-19.39,34.69-9.33Z"/><path class="cls-5" d="M373.73,531.23c-4.22,13.6-26.11,13.92-26.11,24.22h49.56l-.88-23.82-22.57-.4Z"/><path class="cls-4" d="M529.52,349.24s8.63,11.17,11.21,22.76c0,0-1.79,10.3-13.43,8.05l-5.07-11.75s-3.06,8.85-4.99,8.21c-1.93-.64-1.01-19.28-1.01-19.28l13.3-7.98Z"/><path d="M540.72,373.09c-.49,0-.93-.33-1.06-.82-2.81-10.93-10.95-22.27-11.03-22.39-.35-.49-.24-1.17.25-1.53.49-.35,1.17-.24,1.53.25.34.48,8.47,11.79,11.38,23.12.15.59-.2,1.18-.79,1.33-.09.02-.18.03-.27.03Z"/><path d="M537.98,378.4c-.44,0-.86-.27-1.02-.7l-5.63-14.8c-.21-.56.07-1.2.63-1.41.56-.21,1.2.07,1.41.63l5.63,14.8c.21.56-.07,1.2-.63,1.41-.13.05-.26.07-.39.07Z"/><path d="M533.26,380.92c-.43,0-.83-.25-1.01-.67l-5.67-13.46c-.23-.56.03-1.2.58-1.43.56-.23,1.2.03,1.43.58l5.67,13.46c.23.56-.03,1.2-.58,1.43-.14.06-.28.09-.42.09Z"/><path d="M527.29,381.14c-.42,0-.83-.25-1-.66l-3.94-9.13c-1.13,2.97-2.92,6.46-5.22,6.24-.97-.09-3.56-.34-2-20.46.05-.6.58-1.07,1.17-1.01.6.05,1.05.57,1.01,1.17-.58,7.51-.65,16.25.21,18.04.65-.42,2.27-2.71,3.65-7.36.13-.44.52-.75.98-.78.47-.03.89.24,1.07.66l5.07,11.75c.24.55-.02,1.2-.57,1.44-.14.06-.29.09-.43.09Z"/><path class="cls-1" d="M464.29,314.81v-42.59l48.76,86.9,19.31-11.59s-50.66-108.8-63.72-115.86c-29.45-15.93-67.59-6.72-67.59-6.72l-42.48-23.69-10.62-56.48h-22.21s1.93,67.31,5.79,74.21c3.86,6.9,53.3,39.28,53.3,39.28l-3.09,53.71,82.55,2.84Z"/><path d="M389.73,312.25l-11.62,124.84s40.55,11.59,100.66-12.31l-14.48-109.97-74.56-2.56Z"/><circle class="cls-4" cx="336.03" cy="144.78" r="14.48" transform="translate(-24.27 81.08) rotate(-13.28)"/><path d="M336.03,160.36c-8.59,0-15.58-6.99-15.58-15.58s6.99-15.58,15.58-15.58,15.58,6.99,15.58,15.58-6.99,15.58-15.58,15.58ZM336.03,131.39c-7.38,0-13.39,6.01-13.39,13.39s6.01,13.39,13.39,13.39,13.39-6.01,13.39-13.39-6.01-13.39-13.39-13.39Z"/><path class="cls-4" d="M409.19,223.52c13.58,32.3,38.89.86,38.89.86,0,0-10.32-2.49-9.83-15.97l-17.17-1.11s2.54,16.27-11.89,16.22Z"/><path d="M425.63,239.19c-.69,0-1.38-.05-2.07-.14-6.37-.9-11.54-5.98-15.38-15.11-.14-.34-.11-.73.1-1.03.2-.3.54-.49.91-.49.02,0,.04,0,.06,0,3.56,0,6.29-1.07,8.12-3.19,3.72-4.33,2.64-11.69,2.63-11.77-.05-.33.05-.66.27-.91.22-.24.56-.37.88-.35l17.17,1.11c.59.04,1.04.54,1.02,1.13-.45,12.37,8.61,14.77,9,14.86.36.09.66.36.77.71.12.35.05.74-.18,1.04-.49.61-11.52,14.13-23.3,14.13ZM410.84,224.54c3.43,7.45,7.81,11.6,13.03,12.34,9.39,1.33,19.25-8.58,22.36-12.04-2.97-1.34-9.04-5.32-9.09-15.41l-14.84-.96c.17,2.57.1,8.26-3.26,12.18-1.97,2.29-4.72,3.6-8.19,3.89Z"/><path class="cls-4" d="M426.15,215.75c18.99,0,29.17-47.31,5.03-51.17-16.32-2.61-30.69,51.17-5.03,51.17Z"/><path d="M426.15,216.84c-5.77,0-10.16-2.62-12.68-7.57-5.29-10.39-1.23-29.16,5.94-39,3.71-5.09,7.84-7.44,11.95-6.78,12.33,1.97,15.8,14.26,14.94,25.11-1.08,13.58-9.09,28.24-20.14,28.24ZM430.06,165.58c-2.93,0-6.04,2.09-8.88,5.98-8.23,11.31-9.83,28.71-5.76,36.72,2.15,4.23,5.76,6.37,10.73,6.37,7.64,0,16.67-10.03,17.96-26.22.79-9.87-2.24-21.04-13.1-22.78-.31-.05-.63-.08-.95-.08Z"/><path d="M419.5,173.25c.49,2.35,1.78,4.64,3.89,5.77,2.51,1.35,5.72.84,8.22,2.21,2.31,1.26,3.54,3.85,4.33,6.36.79,2.51,1.31,5.18,2.81,7.34,1.49,2.17,4.35,3.7,6.78,2.68,2.31-.97,3.25-3.72,3.75-6.17,1.26-6.06,1.53-12.48-.44-18.35-1.97-5.87-6.46-11.1-12.4-12.87-8.49-2.52-18.91,3.57-16.94,13.02Z"/><path class="cls-4" d="M449.78,199.8c-1.99,4.4-6.34,6.72-9.71,5.19-3.37-1.53-4.49-6.33-2.49-10.73,1.99-4.4,6.34-6.72,9.71-5.19,3.37,1.53,4.48,6.33,2.49,10.73Z"/><path d="M442.28,206.56c-.92,0-1.82-.19-2.66-.57-.55-.25-.79-.9-.54-1.45.25-.55.9-.79,1.45-.54,1.31.6,2.88.47,4.4-.34,1.62-.87,2.99-2.4,3.86-4.31.87-1.91,1.11-3.95.7-5.74-.39-1.69-1.33-2.94-2.64-3.54-2.82-1.28-6.52.81-8.27,4.65-.25.55-.9.79-1.45.54-.55-.25-.79-.9-.54-1.45,2.24-4.94,7.25-7.51,11.16-5.74,1.95.88,3.32,2.67,3.87,5.04.52,2.26.23,4.79-.84,7.14-1.06,2.34-2.78,4.24-4.82,5.33-1.22.65-2.47.98-3.68.98Z"/><polygon class="cls-5" points="471.85 531.64 475.39 555.45 511.11 555.45 496.15 531.64 471.85 531.64"/><rect class="cls-4" x="347.62" y="552.39" width="49.56" height="6.11"/><path d="M397.18,559.6h-49.56c-.6,0-1.09-.49-1.09-1.09v-6.12c0-.6.49-1.09,1.09-1.09h49.56c.6,0,1.09.49,1.09,1.09v6.12c0,.6-.49,1.09-1.09,1.09ZM348.71,557.42h47.38v-3.93h-47.38v3.93Z"/><rect class="cls-4" x="476.35" y="552.39" width="33.37" height="6.11"/><path d="M509.72,559.6h-33.37c-.6,0-1.09-.49-1.09-1.09v-6.12c0-.6.49-1.09,1.09-1.09h33.37c.6,0,1.09.49,1.09,1.09v6.12c0,.6-.49,1.09-1.09,1.09ZM477.45,557.42h31.18v-3.93h-31.18v3.93Z"/><path class="cls-4" d="M501.81,543.27h-18.7c-.6,0-1.09-.49-1.09-1.09s.49-1.09,1.09-1.09h18.7c.6,0,1.09.49,1.09,1.09s-.49,1.09-1.09,1.09Z"/><path class="cls-4" d="M499.16,537.72h-18.7c-.6,0-1.09-.49-1.09-1.09s.49-1.09,1.09-1.09h18.7c.6,0,1.09.49,1.09,1.09s-.49,1.09-1.09,1.09Z"/><path class="cls-4" d="M374.49,544.64c-.12,0-.24-.02-.35-.06l-8.47-2.9c-.57-.2-.88-.82-.68-1.39.2-.57.82-.88,1.39-.68l8.47,2.9c.57.19.88.82.68,1.39-.16.45-.58.74-1.03.74Z"/><path class="cls-4" d="M377.96,539.86c-.12,0-.24-.02-.35-.06l-8.47-2.9c-.57-.19-.88-.82-.68-1.39.19-.57.82-.88,1.39-.68l8.47,2.9c.57.2.88.82.68,1.39-.16.45-.58.74-1.03.74Z"/><path d="M434.77,285.39c-.31,0-.62-.13-.84-.39l-10.31-12.31c-.39-.46-.33-1.15.14-1.54.46-.39,1.15-.33,1.54.14l10.31,12.31c.39.46.33,1.15-.14,1.54-.2.17-.45.26-.7.26Z"/><circle class="cls-4" cx="388.52" cy="27.53" r="26.93" transform="translate(48.93 218.28) rotate(-33.38)"/><path d="M388.56,55.07c-10.76,0-21-6.35-25.43-16.88-5.88-14,.73-30.17,14.73-36.04,14-5.88,30.17.73,36.04,14.73h0c5.88,14-.73,30.17-14.73,36.04-3.47,1.46-7.07,2.15-10.62,2.15ZM388.49,1.2c-3.39,0-6.84.66-10.16,2.05-13.39,5.62-19.71,21.09-14.09,34.48,5.62,13.39,21.08,19.71,34.48,14.09,13.39-5.62,19.71-21.09,14.09-34.48-4.23-10.07-14.02-16.14-24.32-16.14Z"/><path class="cls-3" d="M409.06,24.67c-3.55-8.45-9.69.1-19.9,4.38-10.21,4.28-20.61,2.68-17.07,11.13,3.55,8.45,14.7,11.84,24.91,7.55,10.21-4.28,15.61-14.61,12.06-23.07Z"/><path class="cls-2" d="M398.01,24.34c-.33-.79-.81-1.32-1.44-1.6-.63-.28-1.55-.4-2.76-.35-1.21.05-2.27.03-3.19-.04-.92-.07-1.76-.24-2.51-.52-.75-.28-1.42-.69-2.01-1.24-.59-.55-1.08-1.3-1.47-2.24-.68-1.62-.72-3.16-.12-4.63.6-1.47,1.72-2.65,3.36-3.54l-1.29-3.08,2.3-.96,1.31,3.12c1.8-.47,3.42-.32,4.87.45,1.45.77,2.57,2.09,3.35,3.96l-4.15,1.74c-.48-1.15-1.08-1.91-1.79-2.28-.71-.37-1.47-.39-2.26-.06-.79.33-1.3.81-1.54,1.43-.24.63-.2,1.33.13,2.12.31.73.76,1.22,1.37,1.49.61.26,1.58.39,2.92.37,1.34-.02,2.46.02,3.37.11.91.1,1.72.3,2.45.6.72.3,1.36.72,1.9,1.26.54.54,1,1.25,1.36,2.12.68,1.63.73,3.16.14,4.61-.59,1.44-1.74,2.63-3.44,3.56l1.2,2.86-2.28.96-1.19-2.85c-2.05.61-3.87.55-5.44-.18-1.57-.73-2.77-2.08-3.6-4.04l4.15-1.74c.48,1.14,1.12,1.9,1.91,2.28.8.38,1.7.36,2.72-.07.84-.35,1.42-.86,1.72-1.51.3-.65.29-1.35-.02-2.11Z"/><circle class="cls-4" cx="478.77" cy="75.09" r="26.93" transform="translate(254.86 504.89) rotate(-71.4)"/><path d="M478.77,102.64c-3.53,0-7.06-.69-10.42-2.06-6.81-2.78-12.12-8.05-14.97-14.83-2.85-6.78-2.88-14.27-.1-21.07,2.78-6.81,8.05-12.12,14.83-14.97,6.78-2.85,14.27-2.88,21.07-.1,6.81,2.78,12.12,8.05,14.97,14.83,2.85,6.78,2.88,14.27.1,21.07-2.78,6.81-8.05,12.12-14.83,14.97-3.43,1.44-7.04,2.16-10.65,2.16ZM478.77,48.74c-3.46,0-6.91.69-10.19,2.07-6.49,2.72-11.52,7.81-14.19,14.32-2.66,6.51-2.63,13.67.09,20.16,2.72,6.49,7.81,11.52,14.32,14.19,6.51,2.66,13.67,2.63,20.16-.09,6.49-2.72,11.52-7.81,14.19-14.32,2.66-6.51,2.63-13.67-.09-20.16h0c-2.72-6.49-7.81-11.52-14.32-14.19-3.22-1.31-6.59-1.97-9.97-1.97Z"/><path class="cls-3" d="M499.3,72.22c-3.55-8.45-9.69.1-19.9,4.38-10.21,4.28-20.61,2.68-17.07,11.13s14.7,11.84,24.91,7.55c10.21-4.28,15.61-14.61,12.06-23.07Z"/><circle class="cls-2" cx="480.26" cy="64.89" r="7.29"/><path class="cls-2" d="M481.27,75.09h-2.02c-4.97,0-9,4.03-9,9v7.22c0,1.75.51,3.38,1.37,4.76,4.64,1.6,10.26,1.47,15.63-.78.91-.38,1.78-.81,2.61-1.28.27-.85.41-1.76.41-2.69v-7.22c0-4.97-4.03-9-9-9Z"/><circle class="cls-2" cx="250.29" cy="95.1" r="52.51" transform="translate(6.06 204.83) rotate(-45)"/><circle class="cls-4" cx="250.29" cy="95.1" r="40.81" transform="translate(6.06 204.83) rotate(-45)"/><circle class="cls-2" cx="250.29" cy="95.1" r="29.32" transform="translate(-17.34 103.02) rotate(-22.5)"/><circle class="cls-4" cx="250.29" cy="95.1" r="17.48" transform="translate(6.06 204.83) rotate(-45)"/><path class="cls-6" d="M257.32,95.1c0-3.88-3.15-7.03-7.03-7.03s-7.03,3.15-7.03,7.03,3.15,7.03,7.03,7.03,7.03-3.15,7.03-7.03Z"/><path d="M250.29,145.33c-29.28,0-53.11-23.82-53.11-53.11s23.82-53.11,53.11-53.11,53.11,23.82,53.11,53.11-23.82,53.11-53.11,53.11ZM250.29,40.31c-28.62,0-51.91,23.29-51.91,51.91s23.29,51.91,51.91,51.91,51.91-23.29,51.91-51.91-23.29-51.91-51.91-51.91Z"/><path class="cls-8" d="M216.53,38.38c-.2,0-.4-.1-.51-.29l-7.05-11.59c-.17-.28-.08-.65.2-.82.28-.17.65-.08.82.2l7.05,11.59c.17.28.08.65-.2.82-.1.06-.2.09-.31.09Z"/><path class="cls-8" d="M254.74,30.53c-.33,0-.6-.27-.6-.6V13.78c0-.33.27-.6.6-.6s.6.27.6.6v16.15c0,.33-.27.6-.6.6Z"/><path class="cls-8" d="M234.29,32.01c-.28,0-.53-.2-.59-.49l-1.48-7.75c-.06-.33.15-.64.48-.7.32-.06.64.15.7.48l1.48,7.75c.06.33-.15.64-.48.7-.04,0-.08.01-.11.01Z"/><path class="cls-8" d="M277.06,33.7c-.12,0-.23-.03-.33-.1-.27-.18-.35-.56-.16-.83l5.21-7.73c.19-.27.56-.35.83-.16.27.18.35.56.16.83l-5.21,7.73c-.12.17-.3.26-.5.26Z"/><path class="cls-8" d="M293.43,46.4c-.2,0-.4-.1-.51-.29-.17-.28-.09-.65.2-.82l22.14-13.62c.28-.17.65-.09.82.2.17.28.09.65-.2.82l-22.14,13.62c-.1.06-.21.09-.31.09Z"/><path class="cls-8" d="M188.59,118.99c-.22,0-.43-.12-.54-.33-.15-.3-.03-.66.27-.8l7.46-3.74c.3-.15.66-.03.8.27.15.3.03.66-.27.8l-7.46,3.74c-.09.04-.18.06-.27.06Z"/><path class="cls-8" d="M197.78,148.65c-.16,0-.31-.06-.43-.18-.23-.24-.22-.62.01-.85l11.7-11.35c.24-.23.62-.23.85.01.23.24.22.62-.01.85l-11.7,11.35c-.12.11-.27.17-.42.17Z"/><path class="cls-8" d="M218.67,170.7c-.08,0-.17-.02-.25-.06-.3-.14-.43-.5-.29-.8l9.3-19.81c.14-.3.5-.43.8-.29.3.14.43.5.29.8l-9.3,19.81c-.1.22-.32.34-.54.34Z"/><path class="cls-8" d="M254.74,176.96c-.33,0-.6-.27-.6-.6v-22.63c0-.33.27-.6.6-.6s.6.27.6.6v22.63c0,.33-.27.6-.6.6Z"/><path class="cls-8" d="M306.07,139.13c-.11,0-.23-.03-.33-.1l-9.67-6.47c-.27-.18-.35-.56-.16-.83.18-.28.56-.35.83-.16l9.67,6.47c.27.18.35.56.16.83-.12.17-.31.27-.5.27Z"/><path class="cls-8" d="M302.8,154.34c-.18,0-.36-.08-.48-.23l-11.7-15.2c-.2-.26-.15-.64.11-.84.26-.2.64-.15.84.11l11.7,15.2c.2.26.15.64-.11.84-.11.08-.24.12-.37.12Z"/><path class="cls-8" d="M263.83,165.65c-.28,0-.53-.19-.59-.48l-2.4-11.31c-.07-.32.14-.64.46-.71.32-.07.64.14.71.46l2.4,11.31c.07.32-.14.64-.46.71-.04,0-.08.01-.12.01Z"/><polygon class="cls-8" points="188.46 68.6 166.48 58.5 166.61 42.5 188.59 52.59 188.46 68.6"/><polygon class="cls-4" points="188.46 68.6 166.48 58.5 154.43 69.03 176.41 79.13 188.46 68.6"/><path d="M246.21,95.71c-.08,0-.17-.02-.25-.06l-79.73-36.61c-.3-.14-.43-.49-.3-.79s.49-.43.79-.29l79.73,36.61c.3.14.43.49.29.79-.1.22-.32.35-.55.35Z"/><path d="M182.92,66.65h0c-.33,0-.6-.27-.59-.6l.13-16c0-.33.27-.59.6-.59h0c.33,0,.6.27.59.6l-.13,16c0,.33-.27.59-.6.59Z"/><path d="M177.68,64.25h0c-.33,0-.6-.27-.59-.6l.13-16c0-.33.28-.58.6-.59.33,0,.6.27.59.6l-.13,16c0,.33-.27.59-.6.59Z"/><path d="M170.66,77.09c-.17,0-.33-.07-.45-.21-.22-.25-.19-.63.06-.85l12.05-10.53c.25-.22.63-.19.85.06.22.25.19.63-.06.85l-12.05,10.53c-.11.1-.25.15-.39.15Z"/><path d="M176.41,79.73c-.08,0-.17-.02-.25-.05l-21.98-10.09c-.3-.14-.43-.49-.29-.79.14-.3.49-.43.79-.29l21.63,9.93,11.76-10.27c.25-.22.63-.19.85.06.22.25.19.63-.06.85l-12.05,10.53c-.11.1-.25.15-.39.15Z"/><circle class="cls-4" cx="43.98" cy="39.75" r="26.93" transform="translate(-14.27 28.76) rotate(-31.42)"/><path d="M44.02,67.28c-10.76,0-21.01-6.35-25.43-16.88-5.88-14,.73-30.17,14.73-36.04,6.78-2.85,14.26-2.88,21.07-.1,6.81,2.78,12.12,8.05,14.97,14.83,2.85,6.78,2.88,14.27.1,21.07-2.78,6.81-8.05,12.12-14.83,14.97-3.47,1.46-7.07,2.15-10.62,2.15ZM43.98,13.4c-3.46,0-6.91.69-10.19,2.07-13.39,5.62-19.71,21.09-14.09,34.48,5.62,13.39,21.09,19.71,34.48,14.09,6.49-2.72,11.52-7.81,14.19-14.32,2.66-6.51,2.63-13.67-.09-20.16h0c-2.72-6.49-7.81-11.52-14.32-14.19-3.22-1.32-6.59-1.97-9.97-1.97Z"/><path class="cls-3" d="M64.51,36.88c-3.55-8.45-9.69.1-19.9,4.38-10.21,4.28-20.61,2.68-17.07,11.13,3.55,8.45,14.7,11.84,24.91,7.55,10.21-4.28,15.61-14.61,12.06-23.07Z"/><polygon class="cls-2" points="38.8 52.21 28.45 52.21 28.45 33.42 38.8 27.16 38.8 52.21"/><polygon class="cls-2" points="49.16 52.21 38.8 52.21 38.8 33.42 49.16 27.16 49.16 52.21"/><polygon class="cls-2" points="59.51 52.21 49.16 52.21 49.16 33.42 59.51 27.16 59.51 52.21"/><path d="M38.8,34.02c-.33,0-.6-.27-.6-.6v-10.4c0-.33.27-.6.6-.6s.6.27.6.6v10.4c0,.33-.27.6-.6.6Z"/><path d="M49.16,34.02c-.33,0-.6-.27-.6-.6v-10.4c0-.33.27-.6.6-.6s.6.27.6.6v10.4c0,.33-.27.6-.6.6Z"/><rect class="cls-4" x="38.8" y="39.69" width="3.88" height="6.16"/><rect class="cls-4" x="49.16" y="39.69" width="3.88" height="6.16"/><path class="cls-3" d="M280.99,324.42l-29.28-108.46s29.43,27.29,77.21,31.71l18.21,76.76h-66.14Z"/><path d="M347.12,325.31h-66.14c-.4,0-.75-.27-.86-.66l-29.28-108.46c-.1-.38.06-.79.4-.99.34-.2.77-.16,1.07.11.29.27,29.78,27.14,76.69,31.47.38.04.7.31.78.68l18.21,76.76c.06.26,0,.54-.17.76-.17.21-.43.34-.7.34ZM281.67,323.53h64.33l-17.8-75.04c-39.85-3.87-67.19-23.77-74.89-30.01l28.36,105.05Z"/><path class="cls-4" d="M258.77,324.42l-27.61-76.76s38.03,15.37,88.02,15.37l14.69,61.39h-75.1Z"/><path d="M333.87,325.31h-75.1c-.38,0-.71-.24-.84-.59l-27.61-76.76c-.12-.33-.03-.7.22-.94.25-.24.63-.31.95-.18.38.15,38.46,15.3,87.68,15.3.41,0,.77.28.87.68l14.69,61.39c.06.27,0,.54-.17.76-.17.21-.43.34-.7.34ZM259.4,323.53h73.35l-14.27-59.61c-43.14-.12-77.67-11.76-85.82-14.74l26.75,74.35Z"/><path class="cls-7" d="M251.04,265.11s19.7,6.91,56.32,8.75l-56.32-8.75Z"/><path class="cls-7" d="M255.46,279.07s29.7,4.6,54.12,5.83l-54.12-5.83Z"/><path class="cls-7" d="M259.88,293.03s39.7,2.3,51.91,2.92l-51.91-2.92Z"/><path class="cls-7" d="M264.29,306.99h49.7-49.7Z"/></g></svg>