<?xml version="1.0" encoding="UTF-8"?><svg id="Calque_2" xmlns="http://www.w3.org/2000/svg" viewBox="0 0 516.93 577.37"><defs><style>.cls-1{fill:#4666c8;}.cls-2{fill:#8abae7;}.cls-3{fill:#d7e4f2;}.cls-4{fill:#fff;}.cls-5{fill:#4666c9;}.cls-6{fill:#f47a3e;}.cls-7{fill:none;stroke:#000;stroke-miterlimit:10;stroke-width:2px;}.cls-8{fill:#89b9e6;}.cls-9{fill:#f57a3e;}</style></defs><g id="text"><ellipse class="cls-3" cx="264.52" cy="551.39" rx="252.41" ry="25.98"/><path class="cls-3" d="M451.3,503.85c-40.67,9.53-80.74-15.57-122.02-21.94-39.55-6.1-79.51,5.23-117.73,17.09-38.22,11.87-77.47,24.56-117.35,21.22-39.88-3.34-81.01-27.15-91.45-65.78-10.76-39.83,12.99-80.05,19.07-120.86,6.36-42.72-6.88-85.56-13.64-128.21-6.76-42.66-5.31-91.12,24.18-122.67,29.44-31.5,77.74-36.28,120.57-31.3s85.41,17.63,128.29,13.14c30.69-3.22,59.79-15.1,90.1-20.92,30.31-5.82,64.55-4.52,88.21,15.29,20.87,17.48,29.3,46.08,30.21,73.29.91,27.21-4.55,54.2-6.31,81.37-4.09,63.3,8.05,118.96,27,181.24,13.11,43.09-11.72,97.92-59.13,109.03Z"/><path class="cls-8" d="M441.94,58.21c-.13,0-.25-.04-.36-.12-16.26-12.32-40-12.31-57.06-10.13-18.55,2.37-33.42,7.75-33.57,7.8-.31.11-.65-.05-.76-.36-.11-.31.05-.65.36-.76.15-.05,15.13-5.47,33.81-7.86,17.29-2.21,41.38-2.21,57.96,10.36.26.2.31.57.11.84-.12.15-.3.24-.48.24Z"/><path d="M254.98,273.69c-.33,0-.6-.27-.6-.6v-8.81c0-.33.27-.6.6-.6s.6.27.6.6v8.81c0,.33-.27.6-.6.6Z"/><path d="M254.98,288.46c-.33,0-.6-.27-.6-.6v-8.81c0-.33.27-.6.6-.6s.6.27.6.6v8.81c0,.33-.27.6-.6.6Z"/><path d="M266.76,276.67h-8.81c-.33,0-.6-.27-.6-.6s.27-.6.6-.6h8.81c.33,0,.6.27.6.6s-.27.6-.6.6Z"/><path d="M252,276.67h-8.81c-.33,0-.6-.27-.6-.6s.27-.6.6-.6h8.81c.33,0,.6.27.6.6s-.27.6-.6.6Z"/><path d="M313.15,362.46c-.15,0-.31-.06-.42-.17l-11.02-11.02c-.23-.23-.23-.61,0-.84s.61-.23.84,0l11.02,11.02c.23.23.23.61,0,.84-.12.12-.27.17-.42.17Z"/><path d="M302.13,362.46c-.15,0-.31-.06-.42-.17-.23-.23-.23-.61,0-.84l11.02-11.02c.23-.23.61-.23.84,0,.23.23.23.61,0,.84l-11.02,11.02c-.12.12-.27.17-.42.17Z"/><path class="cls-8" d="M491.49,478.79c-.16,0-.32-.06-.43-.19-.23-.24-.21-.62.03-.84,11.94-11.21,25.11-33.99,20.08-78.84-.04-.33.2-.62.53-.66.33-.04.62.2.66.53,2.81,25.02,1.54,59.19-20.45,79.84-.12.11-.26.16-.41.16Z"/><path class="cls-8" d="M506.93,421.63s-.01,0-.02,0c-.33-.01-.59-.29-.58-.62.93-28.21-5.02-45.01-11.33-62.79-5.98-16.87-12.17-34.3-11.99-62.32,0-.33.27-.59.6-.59h0c.33,0,.59.27.59.6-.18,27.8,5.97,45.14,11.92,61.91,6.07,17.11,12.34,34.79,11.4,63.23-.01.32-.28.58-.6.58Z"/><path class="cls-8" d="M337.25,52.64c-.25,0-.48-.15-.56-.4-.11-.31.05-.65.36-.76.61-.22,61.15-21.42,100.09-5.86.31.12.45.47.33.77-.12.31-.47.45-.78.33-38.51-15.39-98.64,5.66-99.24,5.88-.07.02-.13.03-.2.03Z"/><path class="cls-8" d="M34.87,489.42c-.11,0-.21-.03-.31-.09-25.39-15.59-29.88-41.32-29.17-60.16.76-20.35,7.59-37.25,7.65-37.42.12-.3.47-.45.78-.33.3.12.45.47.33.78-.07.17-6.82,16.9-7.57,37.04-.44,11.8,1.25,22.44,5,31.63,4.68,11.46,12.62,20.69,23.61,27.44.28.17.37.54.2.82-.11.18-.31.28-.51.28Z"/><path class="cls-8" d="M5.91,397.17c-.08,0-.16-.02-.24-.05-.3-.13-.44-.49-.3-.79.2-.45,20.1-45.92,17.4-93.9-.02-.33.23-.61.56-.63.34-.02.61.23.63.56,2.72,48.27-17.3,93.99-17.5,94.45-.1.22-.32.35-.55.35Z"/><rect class="cls-8" x="178.19" y="367.24" width="14.24" height="14.24" transform="translate(581.07 508.04) rotate(135)"/><path class="cls-4" d="M434.04,458.03l8.79-113.19,35.11,16.1-23.55,79.28s-7.55,10.82-20.35,17.81Z"/><path class="cls-8" d="M442.82,344.84c.44-15.1,40.11-.71,35.11,16.1-4.15,13.96-35.58.14-35.11-16.1Z"/><path d="M455.23,438.15c-.06.03-.13.04-.2.03-.16-.03-.27-.17-.26-.33l5.81-72.5c-8.29-3.14-19.34-12.61-18.07-20.55.7-4.37,3.65-6.51,8.31-6.03,8.48.88,20.99,10.65,20.55,17.93-.16,2.62-1.59,4.03-4.05,3.96-5.82-.17-16.41-8.76-16.36-14.57.02-1.9.85-2.77,1.56-3.16,1.49-.85,3.84-.45,6.31,1.01,3.03,1.8,6.53,5.54,6.42,10.17-.03,1.26-.52,1.71-.94,1.86-.76.28-1.8-.22-2.79-1.34-1.86-2.11-2.99-5.69-1.39-9-.54-.44-1.1-.82-1.63-1.14-2.24-1.33-4.41-1.72-5.67-1.01-.81.45-1.22,1.33-1.23,2.62-.05,5.42,10.29,13.78,15.75,13.94,2.12.06,3.26-1.07,3.4-3.36.35-5.96-10.31-16.26-19.99-17.27-3.02-.31-6.8.39-7.62,5.5-.54,3.37,1.32,7.46,5.23,11.52,3.52,3.65,8.25,6.8,12.66,8.43.13.05.22.18.2.32l-5.58,69.74,21.99-74.04c.05-.17.23-.26.39-.21.17.05.26.22.21.39l-22.85,76.93c-.03.09-.09.16-.16.19ZM460.64,346.03c-1.36,3-.28,6.3,1.37,8.16.77.87,1.61,1.34,2.09,1.17.33-.12.51-.57.53-1.28.08-3.3-1.81-6.13-3.99-8.05Z"/><path class="cls-3" d="M453.77,464.67l19.62-72.7s-19.72,18.29-51.75,21.25l-12.2,51.44h44.33Z"/><path d="M408.98,465.04c-.11-.14-.15-.33-.11-.51l12.2-51.44c.06-.25.27-.43.53-.46,31.44-2.91,51.2-20.91,51.4-21.1.19-.18.49-.21.71-.07.23.14.34.41.27.67l-19.62,72.7c-.07.26-.31.44-.58.44h-44.33c-.18,0-.35-.08-.47-.23ZM472.32,393.67c-5.16,4.18-23.48,17.52-50.19,20.11l-11.93,50.29h43.12l19.01-70.41Z"/><path class="cls-4" d="M468.66,464.67l18.51-51.44s-25.49,10.3-58.99,10.3l-9.85,41.15h50.33Z"/><path d="M417.86,465.04c-.11-.14-.15-.33-.11-.51l9.85-41.15c.06-.27.3-.46.58-.46,32.99,0,58.51-10.15,58.77-10.25.22-.09.47-.04.64.12.17.16.23.41.15.63l-18.5,51.44c-.09.24-.31.39-.56.39h-50.33c-.18,0-.36-.08-.47-.23ZM486.17,414.24c-5.46,2-28.6,9.8-57.52,9.88l-9.56,39.95h49.16l17.93-49.83Z"/><path d="M477.04,455.23c29.12,0,15.06,23.25,15.06,39.54,0,14.66,6.91,27.63,6.91,27.63h-21.96v-67.17Z"/><polygon class="cls-1" points="353.41 537.28 489.88 537.28 477.04 455.23 365.4 455.23 353.41 537.28"/><path class="cls-7" d="M473.84,424.91s-13.2,4.63-37.75,5.86l37.75-5.86Z"/><path class="cls-7" d="M470.88,434.27s-19.9,3.09-36.27,3.91l36.27-3.91Z"/><path class="cls-7" d="M467.92,443.63s-26.61,1.54-34.79,1.95l34.79-1.95Z"/><path class="cls-7" d="M464.96,452.98h-33.31,33.31Z"/><path d="M451.98,537.87c.29,0,.55-.21.59-.51l11.99-82.04c.05-.33-.18-.63-.5-.68-.33-.05-.63.18-.68.5l-11.99,82.04c-.05.33.18.63.5.68.03,0,.06,0,.09,0Z"/><path d="M472.11,537.87c.33,0,.6-.27.6-.6v-82.04c0-.33-.27-.6-.6-.6s-.6.27-.6.6v82.04c0,.33.27.6.6.6Z"/><circle class="cls-1" cx="242.69" cy="114.04" r="52.25" transform="translate(-15.13 40.35) rotate(-9.22)"/><circle class="cls-4" cx="242.69" cy="114.04" r="40.61"/><circle class="cls-1" cx="242.69" cy="114.04" r="29.17"/><circle class="cls-4" cx="242.69" cy="114.04" r="17.39" transform="translate(-15.13 40.35) rotate(-9.22)"/><path class="cls-6" d="M249.69,114.04c0-3.86-3.13-7-7-7s-7,3.13-7,7,3.13,7,7,7,7-3.13,7-7Z"/><path d="M242.69,164.02c-29.14,0-52.85-23.71-52.85-52.85s23.71-52.85,52.85-52.85,52.85,23.71,52.85,52.85-23.71,52.85-52.85,52.85ZM242.69,59.52c-28.48,0-51.65,23.17-51.65,51.65s23.17,51.65,51.65,51.65,51.65-23.17,51.65-51.65-23.17-51.65-51.65-51.65Z"/><path class="cls-1" d="M51.5,164.84c-5.91,0-11.74-1.87-16.16-5.28-10.11-7.81-14.24-22.59-10.05-35.95,3.71-11.82,13.28-22.01,26.26-27.97,1.23-.57,2.49-1.1,3.78-1.59-1.22-2.79-2.25-5.67-2.98-8.64-3.97-16.21,2.04-34.21,14.94-44.79.25-.21.63-.17.84.08.21.25.17.63-.08.84-12.55,10.3-18.4,27.81-14.54,43.58.71,2.92,1.73,5.75,2.94,8.51,9.49-3.43,20.51-4.95,33.47-4.61.36,0,.72.02,1.09.03,3.83-5.98,9.93-11.14,17.51-14.7,15.91-7.46,30.61-7.52,43.7-.19.29.16.39.52.23.81-.16.29-.53.39-.81.23-12.73-7.13-27.07-7.05-42.61.23-7.13,3.34-12.91,8.14-16.63,13.68,6.41.31,13.44,1.3,19.41,4.91,5.96,3.61,11.52,11.21,9.66,19.39-1,4.39-4.27,8.05-8.97,10.05-5.34,2.27-11.47,1.98-16.01-.76-8.39-5.06-12.1-16.73-8.62-27.14.61-1.83,1.43-3.62,2.43-5.34-.14,0-.27,0-.41-.01-12.78-.33-23.62,1.15-32.96,4.51,2.06,4.5,4.58,8.82,7.05,13.05,2.12,3.63,4.31,7.38,6.19,11.2,3.1,6.31,4.96,12.77,5.38,18.69.5,7.1-1.04,13.16-4.58,18.01-3.51,4.81-9.06,7.97-15.62,8.9-1.28.18-2.58.27-3.87.27ZM55.82,95.14c-1.29.49-2.54,1.02-3.77,1.58-12.68,5.82-22.01,15.75-25.62,27.25-3.98,12.69.08,27.26,9.64,34.65,5.13,3.96,12.28,5.75,19.12,4.77,6.23-.88,11.5-3.87,14.82-8.42,6.19-8.46,5.85-21.72-.91-35.47-1.86-3.78-4.04-7.51-6.14-11.12-2.5-4.29-5.06-8.66-7.15-13.24ZM91.66,90.27c-1.11,1.83-2.01,3.73-2.66,5.67-3.25,9.73.31,21.04,8.1,25.74,4.22,2.55,9.94,2.81,14.93.69,4.35-1.85,7.37-5.21,8.28-9.22,1.65-7.27-3.33-14.61-9.11-18.11-5.96-3.61-13.09-4.51-19.54-4.77Z"/><polygon class="cls-8" points="280.48 61.24 294.2 41.46 309.85 44.38 296.13 64.16 280.48 61.24"/><polygon class="cls-8" points="280.48 61.24 294.2 41.46 285.98 27.82 272.26 47.59 280.48 61.24"/><path d="M243.84,113.08c.01-.08.05-.16.1-.23l49.77-71.72c.19-.27.56-.34.83-.15.27.19.34.56.15.83l-49.77,71.72c-.19.27-.56.34-.83.15-.2-.14-.29-.37-.25-.6Z"/><path d="M283.35,56.15s0,0,0,0c.06-.32.37-.54.7-.48l15.66,2.92c.32.06.54.37.48.69,0,0,0,0,0,0-.06.32-.37.54-.7.48l-15.66-2.92c-.32-.06-.53-.37-.48-.69Z"/><path d="M286.62,51.43s0,0,0,0c.06-.32.37-.54.7-.48l15.66,2.92c.32.06.52.37.48.7-.06.32-.37.54-.7.48l-15.66-2.92c-.32-.06-.53-.37-.48-.69Z"/><path d="M275.26,42.32c.03-.16.13-.31.28-.41.28-.17.65-.08.82.2l8.21,13.64c.17.28.08.65-.2.82-.28.17-.65.08-.82-.2l-8.21-13.64c-.08-.13-.1-.28-.08-.41Z"/><path d="M32.55,117.99c-3.76,0-6.82-3.06-6.82-6.82s3.06-6.82,6.82-6.82,6.82,3.06,6.82,6.82-3.06,6.82-6.82,6.82ZM32.55,105.55c-3.1,0-5.62,2.52-5.62,5.62s2.52,5.62,5.62,5.62,5.62-2.52,5.62-5.62-2.52-5.62-5.62-5.62Z"/><path class="cls-1" d="M438.93,126.79c-9.51,0-19.01-2.81-26.78-8.44-3.92-2.84-7.39-6.32-10.75-9.68-1.3-1.3-2.61-2.62-3.96-3.91-3.7,3.7-8.3,6.99-13.66,9.76-7.26,3.74-16.96,5.62-22.41-.33-2.46-2.69-3.25-6.54-2.15-10.55,1.38-5.03,5.43-9.37,10.08-10.78,7.32-2.23,16.24.33,24.47,7.03,1.25,1.02,2.46,2.09,3.64,3.2,2.31-2.44,4.23-5.05,5.7-7.78,4.56-8.47,4.73-18.63.45-25.9-4.71-7.98-15.26-11.81-23.05-8.38-.3.13-.65,0-.79-.3-.13-.3,0-.65.3-.79,8.45-3.73,19.46.24,24.56,8.86,4.5,7.61,4.33,18.24-.42,27.07-1.52,2.83-3.5,5.52-5.88,8.04,1.36,1.3,2.68,2.62,3.98,3.92,3.32,3.33,6.76,6.77,10.6,9.55,15.22,11.02,37.26,10.95,52.41-.16,15.15-11.11,21.84-32.12,15.9-49.94-.1-.31.07-.65.38-.75.31-.11.65.06.75.38,6.1,18.3-.77,39.87-16.32,51.28-7.82,5.73-17.42,8.6-27.03,8.6ZM374.76,93.25c-1.69,0-3.4.23-5.13.75-4.27,1.3-8,5.3-9.28,9.96-1,3.66-.33,7.01,1.88,9.43,4.99,5.45,14.11,3.61,20.98.07,5.24-2.7,9.74-5.91,13.34-9.51-1.16-1.08-2.34-2.13-3.56-3.13-3.09-2.52-10.28-7.57-18.24-7.57Z"/><circle class="cls-4" cx="434.69" cy="133.49" r="26.8" transform="translate(146.66 485.36) rotate(-67.77)"/><path d="M434.69,160.9c-3.51,0-7.02-.68-10.37-2.05-6.77-2.77-12.07-8.01-14.9-14.76-2.83-6.75-2.87-14.2-.1-20.97,2.77-6.77,8.01-12.06,14.76-14.9,6.75-2.83,14.19-2.87,20.97-.1,6.77,2.77,12.07,8.01,14.9,14.76,2.83,6.75,2.87,14.2.1,20.97-2.77,6.77-8.01,12.06-14.76,14.9-3.41,1.43-7.01,2.15-10.6,2.15ZM434.68,107.27c-3.44,0-6.87.69-10.14,2.06-6.45,2.71-11.47,7.77-14.12,14.25-2.65,6.48-2.61,13.6.09,20.06,2.71,6.45,7.77,11.47,14.25,14.12,6.48,2.65,13.6,2.61,20.06-.09,6.45-2.71,11.47-7.77,14.12-14.25,2.65-6.48,2.62-13.6-.09-20.06h0c-2.71-6.45-7.77-11.47-14.25-14.12-3.2-1.31-6.56-1.96-9.92-1.96Z"/><path class="cls-3" d="M455.12,130.63c-3.53-8.41-9.64.1-19.8,4.36-10.16,4.26-20.51,2.67-16.98,11.08,3.53,8.41,14.63,11.78,24.79,7.51,10.16-4.26,15.53-14.54,12-22.95Z"/><circle class="cls-1" cx="436.17" cy="123.33" r="7.26"/><path class="cls-1" d="M437.17,133.49h-2.01c-4.94,0-8.95,4.01-8.95,8.95v7.19c0,1.74.5,3.36,1.36,4.74,4.62,1.6,10.21,1.46,15.55-.78.9-.38,1.77-.81,2.59-1.28.27-.85.41-1.75.41-2.68v-7.19c0-4.94-4.01-8.95-8.95-8.95Z"/><circle class="cls-4" cx="477.78" cy="44.67" r="33.82" transform="translate(80.3 313.51) rotate(-39.41)"/><path d="M477.78,79.1c-4.41,0-8.82-.86-13.03-2.58-8.51-3.48-15.16-10.06-18.72-18.54-7.35-17.5.92-37.71,18.42-45.06,8.48-3.56,17.83-3.6,26.34-.12,8.51,3.48,15.16,10.06,18.72,18.54h0c3.56,8.48,3.6,17.83.12,26.34-3.48,8.51-10.06,15.16-18.54,18.72-4.29,1.8-8.8,2.7-13.32,2.7ZM477.73,11.44c-4.28,0-8.63.83-12.82,2.59-16.89,7.09-24.87,26.6-17.78,43.5,3.44,8.18,9.85,14.54,18.07,17.9,8.22,3.36,17.25,3.32,25.43-.12,8.18-3.44,14.54-9.85,17.9-18.07,3.36-8.22,3.32-17.25-.12-25.43h0c-5.33-12.71-17.69-20.37-30.68-20.37Z"/><path class="cls-3" d="M503.56,41.06c-4.46-10.62-12.17.12-24.99,5.5-12.82,5.38-25.89,3.36-21.43,13.98s18.46,14.86,31.28,9.48c12.82-5.38,19.6-18.35,15.14-28.97Z"/><path class="cls-4" d="M479.89,41.46c-2.96,10.28-9.35,17.46-14.26,16.04-4.91-1.42-6.49-10.89-3.53-21.17,2.96-10.28,9.35-17.46,14.26-16.04,4.91,1.42,6.49,10.89,3.53,21.17Z"/><path d="M466.91,58.28c-.49,0-.98-.07-1.45-.2-2.61-.75-4.43-3.5-5.14-7.74-.68-4.08-.25-9.12,1.2-14.17,3.1-10.76,9.69-17.98,14.99-16.45,2.61.75,4.43,3.5,5.14,7.74.68,4.08.25,9.12-1.21,14.17h0c-1.46,5.05-3.77,9.54-6.52,12.64-2.34,2.63-4.78,4.02-7.02,4.02ZM475.1,20.71c-4.37,0-9.82,6.78-12.42,15.79-1.41,4.89-1.83,9.73-1.17,13.65.63,3.76,2.15,6.17,4.29,6.79,2.14.62,4.72-.61,7.25-3.46,2.63-2.97,4.86-7.29,6.27-12.18h0c1.41-4.89,1.83-9.73,1.17-13.64-.63-3.76-2.15-6.17-4.29-6.79-.36-.1-.72-.15-1.1-.15Z"/><path class="cls-6" d="M487.19,45.01c-1.21,4.21.55,8.41,3.94,9.38,3.39.98,7.12-1.64,8.33-5.84,1.21-4.21-.55-8.41-3.94-9.38-3.39-.98-7.12,1.64-8.33,5.84Z"/><path class="cls-4" d="M479.47,22.87c4.97,15.28,14.96,20.09,14.96,20.09l-2.48,8.6s-13.18-1.33-22.32,5.43l9.83-34.11Z"/><path class="cls-8" d="M479.89,41.46c2.96-10.28,1.38-19.75-3.53-21.17-4.91-1.42-11.29,5.77-14.26,16.04-2.96,10.28-1.38,19.75,3.53,21.17,4.91,1.42,11.29-5.77,14.26-16.04Z"/><path d="M466.91,58.28c-.49,0-.98-.07-1.45-.2-2.61-.75-4.43-3.5-5.14-7.74-.68-4.08-.25-9.12,1.2-14.17,3.1-10.76,9.69-17.98,14.99-16.45,2.61.75,4.43,3.5,5.14,7.74.68,4.08.25,9.12-1.21,14.17h0c-1.46,5.05-3.77,9.54-6.52,12.64-2.34,2.63-4.78,4.02-7.02,4.02ZM475.1,20.71c-4.37,0-9.82,6.78-12.42,15.79-1.41,4.89-1.83,9.73-1.17,13.65.63,3.76,2.15,6.17,4.29,6.79,2.14.62,4.72-.61,7.25-3.46,2.63-2.97,4.86-7.29,6.27-12.18h0c1.41-4.89,1.83-9.73,1.17-13.64-.63-3.76-2.15-6.17-4.29-6.79-.36-.1-.72-.15-1.1-.15Z"/><path class="cls-1" d="M478.93,41.18c1.62-5.61.76-10.78-1.92-11.56-2.68-.77-6.16,3.15-7.78,8.76-1.62,5.61-.76,10.78,1.92,11.56s6.16-3.15,7.78-8.76Z"/><path class="cls-4" d="M479.89,41.46c-.85,2.95-3.93,4.64-6.87,3.8-2.95-.85-4.64-3.93-3.8-6.87.85-2.95,3.93-4.64,6.87-3.8s4.64,3.93,3.8,6.87Z"/><path d="M474.56,46.07c-.57,0-1.15-.08-1.71-.24-3.26-.94-5.14-4.35-4.2-7.61.45-1.58,1.5-2.88,2.93-3.68,1.44-.79,3.1-.98,4.68-.53,3.26.94,5.14,4.35,4.2,7.61-.45,1.58-1.5,2.88-2.93,3.68-.92.51-1.94.77-2.96.77ZM474.55,34.96c-.83,0-1.64.21-2.39.62-1.16.64-2,1.69-2.36,2.96-.76,2.62.76,5.38,3.39,6.13,1.27.37,2.61.22,3.77-.42,1.16-.64,2-1.69,2.36-2.96.76-2.63-.76-5.38-3.39-6.13-.45-.13-.92-.2-1.38-.2Z"/><path d="M484.83,63.63c-.12,0-.24-.04-.35-.11-.27-.19-.33-.57-.13-.83l6.3-8.65c.19-.27.57-.32.83-.13.27.19.32.57.13.83l-6.3,8.65c-.12.16-.3.25-.48.25Z"/><path d="M469.64,57.57c-.19,0-.37-.09-.49-.25-.19-.27-.12-.64.15-.83,9.75-6.84,22.2-5.59,22.72-5.53.33.04.56.33.53.66-.04.33-.34.56-.66.53-.12-.01-12.53-1.25-21.91,5.32-.1.07-.22.11-.34.11Z"/><path d="M494.43,43.55c-.09,0-.18-.02-.27-.06-10.46-5.22-14.24-18.07-14.39-18.61-.09-.32.09-.65.41-.74.32-.09.65.09.74.41.04.13,3.8,12.89,13.78,17.88.29.15.41.51.27.8-.1.21-.32.33-.53.33Z"/><polygon class="cls-4" points="350.74 72.18 366.88 66.33 374.79 74.48 358.65 80.34 350.74 72.18"/><polygon class="cls-4" points="350.74 72.18 366.88 66.33 367.73 55 351.59 60.85 350.74 72.18"/><path d="M315.3,92.46s-.03,0-.05,0l-15.31-1.32c-.24-.02-.44-.18-.51-.41-.08-.23,0-.47.17-.63l11.23-9.99c.19-.17.45-.2.68-.08.22.12.34.36.31.6,0,.07-.83,6.82,3.87,10.78.2.17.27.44.17.68-.09.22-.31.37-.55.37ZM301.42,90.07l12.28,1.06c-2.74-3.12-3.15-7.08-3.15-9.18l-9.13,8.12Z"/><path d="M308.34,88.16c-.24,0-.47-.15-.56-.39-.11-.31.05-.65.36-.76l58.54-21.23c.31-.11.65.05.76.36.11.31-.05.65-.36.76l-58.54,21.23c-.07.02-.14.04-.2.04Z"/><path d="M354.96,71.25s-.03,0-.04,0c-.33-.02-.57-.31-.55-.64l.84-11.33c.02-.33.3-.58.64-.55.33.02.57.31.55.64l-.84,11.33c-.02.31-.28.55-.59.55Z"/><path d="M358.65,80.93c-.16,0-.31-.06-.43-.18l-7.91-8.15c-.23-.24-.22-.61.01-.84.24-.23.61-.22.84.01l7.64,7.88,15.78-5.72c.31-.11.65.05.76.36.11.31-.05.65-.36.76l-16.14,5.85c-.07.02-.14.04-.2.04Z"/><path class="cls-4" d="M410.64,73.33c0-3.43-2.78-6.22-6.22-6.22s-6.22,2.78-6.22,6.22,2.78,6.22,6.22,6.22,6.22-2.78,6.22-6.22Z"/><circle class="cls-8" cx="74.12" cy="33.24" r="32.61"/><path d="M74.07,61.88c-6.57,0-12.88-2.24-18.05-6.44-5.93-4.83-9.63-11.69-10.41-19.3-1.6-15.72,9.88-29.81,25.6-31.42,7.62-.78,15.08,1.46,21.01,6.29,5.93,4.83,9.63,11.69,10.41,19.3h0c.78,7.61-1.46,15.08-6.29,21.01-4.83,5.93-11.69,9.63-19.3,10.41-.99.1-1.98.15-2.96.15ZM74.17,6.14c-.93,0-1.86.05-2.8.14-14.86,1.52-25.71,14.84-24.19,29.69.73,7.2,4.23,13.68,9.84,18.24,5.61,4.57,12.66,6.68,19.86,5.95,7.2-.73,13.68-4.23,18.25-9.84,4.57-5.61,6.68-12.66,5.95-19.86h0c-.73-7.2-4.23-13.68-9.84-18.24-4.88-3.97-10.85-6.09-17.05-6.09Z"/><path d="M71.29,6.29c-.4,0-.74-.3-.78-.71l-.48-4.72c-.04-.43.27-.82.7-.86.43-.04.82.27.86.7l.48,4.72c.04.43-.27.82-.7.86-.03,0-.05,0-.08,0Z"/><path d="M101.84,31.18c-.4,0-.74-.3-.78-.71-.04-.43.27-.82.7-.86l4.72-.48c.43-.04.82.27.86.7.04.43-.27.82-.7.86l-4.72.48s-.05,0-.08,0Z"/><path d="M53.28,59.1c-.19,0-.39-.07-.54-.21-.32-.3-.33-.8-.03-1.11l3.26-3.45c.3-.32.8-.33,1.11-.03.32.3.33.8.03,1.11l-3.26,3.45c-.16.16-.36.25-.57.25Z"/><path d="M47.06,27.33c-.07,0-.14,0-.2-.03l-4.58-1.23c-.42-.11-.67-.54-.56-.96.11-.42.55-.67.96-.56l4.58,1.23c.42.11.67.54.56.96-.09.35-.41.58-.76.58Z"/><path class="cls-4" d="M79.14,22.49h-9.13c-5.36,0-9.7,4.34-9.7,9.7h0c0,5.36,4.34,9.7,9.7,9.7h5.13l5.7,5.7v-5.86c4.55-.8,8-4.77,8-9.54h0c0-5.36-4.34-9.7-9.7-9.7Z"/><path d="M80.83,48.39c-.2,0-.41-.08-.56-.23l-5.47-5.47h-4.8c-5.78,0-10.49-4.7-10.49-10.49s4.71-10.49,10.49-10.49h9.13c5.78,0,10.49,4.7,10.49,10.49,0,4.87-3.33,9.05-8,10.18v5.22c0,.32-.19.61-.49.73-.1.04-.2.06-.3.06ZM70.01,23.28c-4.92,0-8.92,4-8.92,8.92s4,8.92,8.92,8.92h5.13c.21,0,.41.08.56.23l4.36,4.36v-3.96c0-.38.27-.71.65-.77,4.26-.75,7.35-4.44,7.35-8.77,0-4.92-4-8.92-8.92-8.92h-9.13Z"/><circle class="cls-5" cx="67.55" cy="32.19" r="2.14"/><path class="cls-5" d="M77.04,32.19c0-1.18-.96-2.14-2.14-2.14s-2.14.96-2.14,2.14.96,2.14,2.14,2.14,2.14-.96,2.14-2.14Z"/><path class="cls-5" d="M84.4,32.19c0-1.18-.96-2.14-2.14-2.14s-2.14.96-2.14,2.14.96,2.14,2.14,2.14,2.14-.96,2.14-2.14Z"/><circle class="cls-4" cx="151" cy="83.02" r="27.44" transform="translate(-20.19 63.36) rotate(-22.25)"/><path d="M150.95,107.13c-5.53,0-10.84-1.88-15.18-5.42-4.99-4.07-8.1-9.84-8.76-16.24-.65-6.41,1.23-12.69,5.29-17.68,4.07-4.99,9.84-8.1,16.24-8.76,13.22-1.35,25.09,8.31,26.44,21.54h0c1.35,13.23-8.31,25.09-21.54,26.44-.83.09-1.67.13-2.49.13ZM151.02,60.23c-.77,0-1.55.04-2.33.12-6.06.62-11.51,3.56-15.35,8.28-3.84,4.72-5.62,10.65-5,16.71.62,6.06,3.56,11.51,8.28,15.35,4.72,3.84,10.65,5.62,16.71,5,12.5-1.28,21.63-12.48,20.36-24.98h0c-1.2-11.72-11.12-20.47-22.65-20.47Z"/><path d="M148.62,60.35c-.34,0-.62-.25-.66-.59l-.41-3.97c-.04-.36.23-.69.59-.73.37-.04.69.23.73.59l.41,3.97c.04.36-.23.69-.59.73-.02,0-.05,0-.07,0Z"/><path d="M174.33,81.29c-.34,0-.62-.25-.66-.59-.04-.36.23-.69.59-.73l3.97-.41c.37-.04.69.23.73.59.04.36-.23.69-.59.73l-3.97.4s-.05,0-.07,0Z"/><path d="M133.46,104.78c-.16,0-.33-.06-.45-.18-.27-.25-.28-.67-.03-.94l2.75-2.91c.25-.27.67-.28.94-.03.27.25.28.67.03.94l-2.75,2.91c-.13.14-.31.21-.48.21Z"/><path class="cls-2" d="M163.44,74.36c0-2.19-1.78-3.97-3.97-3.97s-3.97,1.78-3.97,3.97,1.78,3.97,3.97,3.97,3.97-1.78,3.97-3.97Z"/><path class="cls-2" d="M158.46,77.84h2.02c3.33,0,6.03,2.7,6.03,6.03v7.7h-14.09v-7.7c0-3.33,2.7-6.03,6.03-6.03Z"/><path class="cls-2" d="M147.93,74.36c0-2.19-1.78-3.97-3.97-3.97s-3.97,1.78-3.97,3.97,1.78,3.97,3.97,3.97,3.97-1.78,3.97-3.97Z"/><path class="cls-2" d="M151,91.57h-14.09v-6.69c0-3.89,3.15-7.04,7.04-7.04h0c3.89,0,7.04,3.15,7.04,7.04v6.69Z"/><circle class="cls-5" cx="151" cy="80.98" r="3.97"/><path class="cls-5" d="M158.04,98.19h-14.09v-6.69c0-3.89,3.15-7.04,7.04-7.04h0c3.89,0,7.04,3.15,7.04,7.04v6.69Z"/><path d="M178.3,86.52s-.05,0-.07,0l-3.97-.42c-.36-.04-.63-.36-.59-.73.04-.36.37-.62.73-.59l3.97.42c.36.04.63.36.59.73-.04.34-.32.59-.66.59Z"/><path class="cls-4" d="M159.43,439.49c.41-.02.81-.02,1.21,0h89.55l-20.72,89.73h-90.75s7.6-89.15,20.72-89.73Z"/><path d="M229.46,529.79h-90.75c-.16,0-.31-.07-.42-.18-.11-.12-.16-.27-.15-.43.02-.22,1.94-22.56,5.45-44.69,4.75-29.98,10.07-45.31,15.81-45.57h0c.42-.02.85-.02,1.26,0h89.52c.17,0,.34.08.44.21.11.13.15.31.11.48l-20.72,89.73c-.06.26-.29.44-.55.44ZM139.32,528.66h89.69l20.46-88.6h-88.83c-.4-.02-.79-.02-1.18,0l-.03-.57.03.57c-10.27.46-17.95,63.51-20.13,88.6Z"/><path class="cls-4" d="M234.47,481.32l-49.25,7.62-44.18-8.45s6.38-41,18.39-41l75.04,41.83Z"/><path d="M185.22,489.5s-.07,0-.11,0l-44.18-8.45c-.3-.06-.5-.34-.45-.64.26-1.69,6.6-41.47,18.95-41.47.31,0,.57.25.57.57s-.25.57-.57.57c-4.63,0-9.18,6.95-13.15,20.09-2.65,8.77-4.21,17.65-4.59,19.89l43.54,8.33,49.16-7.6c.31-.04.6.16.65.47.05.31-.16.6-.47.65l-49.25,7.62s-.06,0-.09,0Z"/><path class="cls-1" d="M264.62,529.22c7.6-72.36-1.32-90.32-14.44-89.73-13.12.59-20.72,89.73-20.72,89.73h35.16Z"/><path d="M264.62,529.79h-35.16c-.16,0-.31-.07-.42-.18-.11-.12-.16-.27-.15-.43.02-.22,1.94-22.56,5.45-44.69,4.75-29.98,10.07-45.31,15.81-45.57,3.65-.16,6.78,1.1,9.28,3.75,8.99,9.54,10.87,37.87,5.75,86.61-.03.29-.27.51-.56.51ZM230.08,528.66h34.03c5.02-48.08,3.22-75.95-5.5-85.2-2.3-2.44-5.04-3.54-8.4-3.4-10.27.46-17.95,63.51-20.13,88.6Z"/><polygon class="cls-3" points="192.14 496.64 178.58 496.64 182.08 475.53 195.64 475.53 192.14 496.64"/><polygon class="cls-4" points="188.83 496.64 178.58 496.64 182.08 475.53 192.33 475.53 188.83 496.64"/><path d="M188.83,497.2h-13.56c-.17,0-.32-.07-.43-.2-.11-.13-.15-.29-.13-.46l3.5-21.11c.05-.27.28-.47.56-.47h13.56c.17,0,.32.07.43.2.11.13.15.29.13.46l-3.5,21.11c-.05.27-.28.47-.56.47ZM175.94,496.07h12.41l3.31-19.98h-12.41l-3.31,19.98Z"/><path d="M230.77,425.93h-44.52c-1.35,0-2.45-1.1-2.45-2.45h0c0-1.35,1.1-2.45,2.45-2.45h44.52c1.35,0,2.45,1.1,2.45,2.45h0c0,1.35-1.1,2.45-2.45,2.45Z"/><path d="M227,439.91s-.08,0-.12-.01c-.31-.07-.5-.37-.43-.68l3.01-13.41c.07-.31.37-.5.68-.43.31.07.5.37.43.68l-3.01,13.41c-.06.26-.29.44-.55.44Z"/><path d="M184.97,439.91s-.08,0-.12-.01c-.31-.07-.5-.37-.43-.68l3.01-13.41c.07-.31.37-.5.68-.43.31.07.5.37.43.68l-3.01,13.41c-.06.26-.29.44-.55.44Z"/><path d="M256.76,523.13c-.14,0-.29-.05-.4-.16l-7.38-7.25c-.12-.12-.18-.28-.17-.44l3.56-52.49c.02-.31.29-.54.6-.53.31.02.55.29.53.6l-3.54,52.23,7.19,7.07c.22.22.23.58,0,.8-.11.11-.26.17-.4.17Z"/><path class="cls-9" d="M61.28,210.76l51.15-18.4,29.47-26.19,15.43,13.15s-25.51,37.86-30.36,41.12c-4.85,3.25-53.5,16.23-53.5,16.23l-12.2-25.91Z"/><circle class="cls-8" cx="180.67" cy="154.98" r="47.2" transform="translate(-57.29 148.95) rotate(-39.17)"/><path d="M176.48,196.1c-10.98-1.12-20.87-6.45-27.84-15.01-6.97-8.56-10.2-19.32-9.07-30.3,2.31-22.67,22.64-39.23,45.31-36.92,22.67,2.31,39.23,22.64,36.92,45.31-2.17,21.25-20.17,37.13-41.08,37.13-1.4,0-2.81-.07-4.23-.22ZM141.54,150.99c-1.07,10.45,2,20.7,8.64,28.84,6.64,8.15,16.05,13.22,26.5,14.29,1.35.14,2.69.21,4.02.21,19.91,0,37.04-15.12,39.1-35.34,2.2-21.58-13.56-40.92-35.14-43.13-1.35-.14-2.69-.21-4.02-.21-19.91,0-37.04,15.12-39.1,35.34Z"/><path d="M184.77,115.85c.5,0,.94-.38.99-.9l.7-6.83c.06-.55-.34-1.04-.89-1.09-.55-.06-1.04.34-1.09.89l-.7,6.83c-.06.55.34,1.04.89,1.09.03,0,.07,0,.1,0Z"/><path d="M181.94,115.66s.04,0,.06,0c.55-.03.97-.5.94-1.05l-.38-6.88c-.03-.55-.49-.98-1.05-.94-.55.03-.97.5-.94,1.05l.38,6.88c.03.53.47.94.99.94Z"/><path d="M140.55,151.88c.5,0,.94-.38.99-.9.06-.55-.34-1.04-.89-1.09l-6.83-.7c-.56-.06-1.04.34-1.09.89s.34,1.04.89,1.09l6.83.7s.07,0,.1,0Z"/><path d="M210.83,192.28c.25,0,.49-.09.68-.27.4-.38.42-1.01.04-1.41l-4.72-5c-.38-.4-1.01-.42-1.41-.04-.4.38-.42,1.01-.04,1.41l4.72,5c.2.21.46.31.72.31Z"/><path d="M219.84,146.3c.09,0,.17-.01.26-.03l6.63-1.78c.53-.14.85-.69.7-1.22-.14-.53-.69-.85-1.22-.7l-6.63,1.78c-.53.14-.85.69-.7,1.22.12.44.52.74.96.74Z"/><path class="cls-4" d="M179.73,126.51c-15.72,0-28.47,12.75-28.47,28.47s12.75,28.47,28.47,28.47,28.47-12.75,28.47-28.47-12.75-28.47-28.47-28.47ZM179.73,178.04c-12.74,0-23.06-10.32-23.06-23.06s10.32-23.06,23.06-23.06,23.06,10.33,23.06,23.06-10.33,23.06-23.06,23.06Z"/><rect class="cls-4" x="170.62" y="151.26" width="4.87" height="14.79" transform="translate(-61.5 168.83) rotate(-45)"/><rect class="cls-4" x="181.44" y="141.84" width="4.87" height="25.74" transform="translate(163.25 -84.7) rotate(45)"/><path class="cls-4" d="M200.1,180.27l-8.2,12.14,11.78,11.63s14.82-4.6,19.47-25.27l-9.31-8.14-9.78,13.51-3.96-3.86Z"/><path class="cls-4" d="M200.1,180.27c-5.78,5.54-8.2,12.14-8.2,12.14l8.2-12.14Z"/><path d="M191.91,193.4c.41,0,.79-.25.94-.65.02-.06,2.41-6.46,7.95-11.76.4-.38.41-1.01.03-1.41-.38-.4-1.01-.41-1.41-.03-5.88,5.63-8.34,12.24-8.44,12.51-.19.52.08,1.09.59,1.28.11.04.23.06.34.06Z"/><path class="cls-4" d="M213.84,170.62l-9.78,13.51,9.78-13.51Z"/><path d="M204.06,185.12c.31,0,.61-.14.81-.41l9.78-13.51c.32-.45.22-1.07-.22-1.39-.44-.32-1.07-.22-1.39.22l-9.78,13.51c-.32.45-.22,1.07.22,1.39.18.13.38.19.58.19Z"/><path d="M203.68,205.03c.15,0,.3-.03.45-.11,18.15-9.1,19.95-25.37,20.02-26.06.05-.55-.35-1.04-.89-1.09-.54-.05-1.03.34-1.09.89h0c-.02.16-1.8,15.89-18.93,24.48-.49.25-.69.85-.44,1.34.17.35.53.55.89.55Z"/><path class="cls-4" d="M219.84,176.8s-1.84,9.22-7.26,14.48l7.26-14.48Z"/><path d="M212.58,192.28c.25,0,.5-.09.69-.28,5.58-5.41,7.47-14.61,7.55-15,.11-.54-.24-1.06-.78-1.17-.54-.11-1.06.24-1.17.78-.02.09-1.85,8.99-6.98,13.96-.4.38-.4,1.01-.02,1.41.2.2.46.3.72.3Z"/><path class="cls-4" d="M216.71,173.12s-2.86,8.95-8.23,14.2l8.23-14.2Z"/><path d="M208.47,188.32c.25,0,.5-.09.7-.28,5.48-5.36,8.37-14.24,8.49-14.61.17-.52-.12-1.08-.65-1.25-.53-.17-1.09.12-1.25.64-.03.09-2.86,8.78-7.98,13.79-.39.38-.4,1.02-.02,1.41.2.2.45.3.71.3Z"/><ellipse class="cls-4" cx="73.94" cy="175.62" rx="17.28" ry="27.31" transform="translate(-44.5 26.35) rotate(-15.6)"/><path d="M56.34,180.54c-2.01-7.21-2.12-14.49-.31-20.52,1.86-6.18,5.52-10.33,10.3-11.66,9.7-2.71,21.01,7.32,25.21,22.35,4.2,15.03-.28,29.47-9.99,32.18-1.07.3-2.16.44-3.25.44-8.86,0-18.23-9.41-21.96-22.79ZM66.87,150.28c-4.1,1.15-7.28,4.81-8.93,10.32-1.7,5.67-1.59,12.56.32,19.41h0c3.49,12.5,12.02,21.34,19.98,21.34.94,0,1.87-.12,2.78-.38,8.65-2.41,12.51-15.75,8.6-29.72-3.49-12.5-12.03-21.34-19.98-21.34-.94,0-1.87.12-2.78.38Z"/><ellipse cx="69" cy="172.69" rx="15.99" ry="19.71"/><ellipse cx="69" cy="160.3" rx="17.82" ry="14.55" transform="translate(-47.61 30.46) rotate(-18.64)"/><ellipse class="cls-4" cx="81.52" cy="210.76" rx="12.74" ry="21.42" transform="translate(-143.09 235.62) rotate(-75.17)"/><path d="M78.01,224.05c-5.7-1.51-10.73-4.26-14.14-7.75-3.55-3.62-4.97-7.63-4.01-11.27.96-3.64,4.18-6.42,9.06-7.81,4.7-1.34,10.42-1.25,16.13.26,5.7,1.51,10.73,4.26,14.14,7.75,3.55,3.62,4.97,7.63,4.01,11.27s-4.18,6.42-9.06,7.81c-2.2.63-4.63.94-7.17.94-2.89,0-5.92-.4-8.95-1.2ZM69.46,199.13c-4.18,1.19-6.9,3.46-7.68,6.4h0c-.78,2.94.47,6.26,3.51,9.36,3.17,3.24,7.87,5.8,13.23,7.22,5.36,1.42,10.71,1.52,15.07.27,4.18-1.19,6.9-3.46,7.68-6.4.78-2.94-.47-6.26-3.51-9.37-3.17-3.24-7.87-5.8-13.23-7.22-2.87-.76-5.73-1.14-8.44-1.14-2.36,0-4.6.29-6.63.87Z"/><polygon class="cls-8" points="47.97 313.72 14.59 536.74 47.97 536.74 88.27 367.4 122.05 536.74 161.95 536.74 132.64 312.85 47.97 313.72"/><path d="M88.26,368.4c.07,0,.14,0,.21-.02.54-.11.88-.64.77-1.18l-3.05-14.49c-.11-.54-.64-.89-1.18-.77-.54.11-.88.64-.77,1.18l3.05,14.49c.1.47.51.79.97.79Z"/><path d="M161.95,536.74c2,7.79,19.84,8.96,23.07,17.91h-23.07l-18.97-3.19,1.21,3.19h-13.17l-2.31-17.91h33.24Z"/><path d="M47.83,536.74c2,7.79,19.84,8.96,23.07,17.91h-23.07l-16.11-3.19-1.66,3.19h-13.17l3.99-17.91h26.95Z"/><path class="cls-9" d="M206.11,206.84s-25.44,29.29-35.47,38.51c-10.81,9.93-48.58-2.51-48.58-2.51l10.58,70.02s-46.6,15.73-84.67.87c0,0-1.63-98.44,6.51-104.2,5.01-3.55,31.1-5.49,55.42-3.22,15.16,1.42,44.29,15.37,44.29,15.37l34.35-30.39s6.45,2.26,17.58,15.56Z"/><path d="M122.05,243.83c.39,0,.77-.24.92-.62.21-.51-.04-1.09-.55-1.3l-9.45-3.82c-.51-.21-1.09.04-1.3.55-.21.51.04,1.09.55,1.3l9.45,3.82c.12.05.25.07.37.07Z"/><path d="M133.47,213.86c.36,0,.7-.19.88-.53.26-.49.07-1.09-.42-1.35-.66-.35-16.45-8.54-35.94-7.46-.55.03-.97.5-.94,1.05.03.55.5.97,1.05.94,18.91-1.05,34.74,7.15,34.9,7.23.15.08.31.11.46.11Z"/><path class="cls-4" d="M77.71,180.9c2.08,3.92,6.03,5.9,8.84,4.41,2.8-1.48,3.39-5.87,1.31-9.79-2.08-3.92-6.03-5.9-8.84-4.41s-3.39,5.87-1.31,9.79Z"/><path d="M84.53,186.79c.87,0,1.71-.19,2.48-.6.49-.26.67-.86.41-1.35-.26-.49-.86-.67-1.35-.41-2.31,1.22-5.67-.57-7.49-4-.91-1.71-1.29-3.56-1.07-5.21.2-1.52.9-2.67,1.96-3.23,2.31-1.23,5.67.57,7.49,4,.26.49.86.67,1.35.41.49-.26.67-.86.41-1.35-2.33-4.4-6.9-6.56-10.18-4.82-1.65.87-2.72,2.55-3.01,4.73-.28,2.05.18,4.33,1.28,6.41,1.79,3.37,4.88,5.43,7.71,5.43Z"/><path d="M365.16,523.66l2.3,30.61,31.99,12.72c1.1-12.36-9.58-8.8-13.87-41.55l-20.41-1.78Z"/><path d="M297.02,525.09l-8.54,30.18h-45.89c3.2-10.24,24.61-5.98,30.98-27.32l23.45-2.86Z"/><path class="cls-8" d="M396.21,300.54l6.46,232.53-40.84-1.04-9.43-174.33-50.33,175.41-40.8-1.15,67.35-244.94s24.9-7.11,67.59,13.52Z"/><path d="M360.95,516.2c-.3,0-.55-.23-.56-.53l-9.64-178.29c-.02-.31.22-.58.53-.59.32-.02.58.22.59.53l9.64,178.29c.02.31-.22.58-.53.59-.01,0-.02,0-.03,0Z"/><path class="cls-6" d="M320.8,294.58s25.61,19.18,79.51,15.42l8.24-93.18s-18.68-20.98-63.5-11.37l-24.25,89.14Z"/><path class="cls-6" d="M408.54,216.81c17.25,16.73,14.76,75.19,3.38,80.29-11.38,5.1-36.28-12.69-44.11-42.93,0,0,8.72-16.54,27.39-16.01l8.36,16.16,4.98-37.52Z"/><path class="cls-4" d="M373.03,253.46s-11.68-14.7-11.18-18.5c.5-3.79,16.57-12.84,19.42-11.18,2.85,1.66,2.67,3.4,2.67,3.4,0,0,4.04.1,4.76,1.99.71,1.9,4.41,15.06,4.41,15.06,0,0-3.72,8.27-20.08,9.22Z"/><path d="M373.03,254.03c-.17,0-.33-.08-.44-.21-1.21-1.52-11.81-15-11.29-18.92.38-2.88,7.52-7.38,11.93-9.54,2.4-1.18,6.68-3.01,8.33-2.05,2.14,1.25,2.74,2.6,2.9,3.35,1.21.09,4.09.51,4.77,2.33.71,1.9,4.28,14.57,4.43,15.11.04.13.03.26-.03.38-.16.35-4.05,8.59-20.56,9.55-.01,0-.02,0-.03,0ZM380.32,224.15c-1.14,0-3.38.64-6.6,2.21-5.89,2.88-11.06,6.86-11.31,8.68-.34,2.58,6.25,11.99,10.88,17.84,8.08-.52,12.89-2.88,15.51-4.78,2.37-1.72,3.42-3.39,3.71-3.91-.48-1.71-3.69-13.08-4.34-14.8-.47-1.25-3.29-1.6-4.24-1.63-.16,0-.3-.07-.41-.19-.1-.12-.15-.27-.14-.43,0-.05.05-1.43-2.4-2.86-.14-.08-.37-.13-.67-.13Z"/><path d="M386.19,235.17c-.24,0-.47-.16-.54-.4l-2.25-7.42c-.09-.3.08-.61.38-.7.3-.09.61.08.7.38l2.25,7.42c.09.3-.08.61-.38.7-.05.02-.11.02-.16.02Z"/><path class="cls-6" d="M345.05,205.44s-37.71-21.34-38.06-23.12-30.59-32.02-30.59-32.02c0,0-14.94,3.56-19.21,17.08,0,0,28.33,55.5,78.02,71.15l9.85-33.09Z"/><path class="cls-4" d="M275.91,154.1l-23.36-29.64-3.56,3.32,4.51,11.5s-6.17,4.15-7.11,9.13c-.95,4.98,14.01,14.81,14.01,14.81l15.51-9.12Z"/><path d="M260.4,163.78c-.11,0-.22-.03-.31-.09-.04-.02-3.81-2.51-7.42-5.58-4.97-4.23-7.27-7.53-6.84-9.81.85-4.49,5.6-8.22,6.98-9.23l-4.35-11.09c-.08-.22-.03-.46.14-.62l3.56-3.32c.12-.11.27-.16.43-.15.16.01.3.09.4.21l23.36,29.64c.1.13.14.29.11.45-.03.16-.13.3-.27.38l-15.51,9.12c-.09.05-.19.08-.29.08ZM249.66,127.92l4.37,11.15c.1.25,0,.53-.21.67-.06.04-5.98,4.08-6.88,8.77-.7,3.69,9.22,11.2,13.48,14.05l14.65-8.62-22.58-28.66-2.83,2.64Z"/><path d="M255.16,155.61c-.09,0-.19-.02-.28-.07-.15-.09-3.65-2.15-2.89-7.21.32-2.12,2.24-4.03,5.03-4.98,3.61-1.24,9.16-.97,13.89,3.51.23.21.24.57.02.8-.21.23-.57.24-.8.02-4.37-4.14-9.45-4.4-12.75-3.26-2.38.82-4.02,2.39-4.28,4.08-.64,4.28,2.21,6,2.33,6.07.27.16.36.5.21.77-.1.18-.29.28-.49.28Z"/><path class="cls-4" d="M360.31,203.2s14.77,8.69,31.59,3.69c0,0,8.64-44.73,10.78-49.94,2.13-5.22-18.85-15.18-28.1-6.64-9.25,8.54-20.63,32.37-16.36,34.86,4.27,2.49,9.6,2.49,9.6,2.49l-7.51,15.55Z"/><path d="M381.14,208.99c-11.94,0-21.01-5.23-21.12-5.3-.25-.15-.35-.47-.22-.73l7.13-14.77c-1.72-.11-5.65-.58-9.01-2.53-.66-.38-1.05-1.12-1.17-2.18-.73-6.68,9.37-26.14,17.43-33.59,6.62-6.11,19.02-3.2,25.43,1.24,2.99,2.08,4.3,4.27,3.58,6.02-2.09,5.11-10.66,49.39-10.75,49.84-.04.21-.19.37-.39.43-3.78,1.12-7.47,1.56-10.91,1.56ZM361.05,202.96c2.58,1.36,15.73,7.68,30.36,3.48.86-4.44,8.69-44.69,10.74-49.71.49-1.2-.7-2.95-3.18-4.67-5.94-4.12-17.91-6.98-24.02-1.34-8.27,7.64-17.71,26.81-17.08,32.64.07.69.28,1.13.61,1.33,4.08,2.38,9.27,2.41,9.32,2.41.19,0,.37.1.48.26.1.16.11.37.03.54l-7.27,15.06Z"/><path class="cls-3" d="M365.83,193.74c9.7,1.74,15.87-8.12,15.87-8.12,0,0-13.16,1.69-13.33,2.04l-2.54,6.09Z"/><path d="M374.57,150.3c-.41.38-.83.8-1.25,1.24,8.34-1.6,19.79,3.5,19.79,3.5l-5.14,17.31,8.61,2.61,1.88-.55c1.78-8.36,3.43-15.56,4.22-17.47,2.13-5.22-18.85-15.18-28.1-6.64Z"/><path d="M259.26,171.7c-.2,0-.39-.1-.49-.28-.15-.27-.06-.61.21-.77l24.16-13.75c.27-.15.61-.06.77.21.15.27.06.61-.21.77l-24.16,13.75c-.09.05-.18.07-.28.07Z"/><path d="M335.2,239.09c-.05,0-.11,0-.16-.02-.3-.09-.47-.4-.38-.7l4.27-14.35c.09-.3.4-.47.7-.38.3.09.47.4.38.7l-4.27,14.35c-.07.24-.3.4-.54.4Z"/><path d="M403.56,254.89c-.21,0-.4-.12-.5-.3l-8.36-16.16c-.14-.28-.03-.62.24-.76.28-.14.62-.03.76.24l7.53,14.57,1.86-14.03c.04-.31.32-.52.63-.48.31.04.53.32.48.63l-2.1,15.8c-.03.24-.22.44-.46.48-.03,0-.06,0-.1,0Z"/><path d="M401.37,298.53c-.09,0-.17-.02-.25-.06-26.01-13.16-33.77-43.85-33.85-44.16-.07-.3.11-.61.41-.68.3-.07.61.11.68.41.07.3,7.72,30.5,33.26,43.42.28.14.39.48.25.76-.1.2-.3.31-.5.31Z"/><path d="M370.44,262.9c-.31,0-.56-.25-.56-.55,0-.31.24-.57.55-.57.21,0,21.34-.52,28.44-15.76.13-.28.47-.4.75-.27.28.13.4.47.27.75-7.41,15.88-29.23,16.41-29.45,16.41h0Z"/><path class="cls-4" d="M367.81,187.65s7.92.31,15.14-2.73l-15.14,2.73Z"/><path d="M368.53,188.23c-.42,0-.68,0-.73-.01-.31-.01-.55-.27-.54-.58.01-.31.28-.55.58-.54.08,0,7.88.27,14.9-2.68.29-.12.62.01.74.3.12.29-.01.62-.3.74-6.07,2.55-12.5,2.78-14.65,2.78Z"/><path class="cls-4" d="M363.98,195.58l7.54,11.76s8.46-10.56,21.59-7.71l-29.13-4.05Z"/><path d="M371.53,207.91s-.02,0-.03,0c-.18,0-.35-.11-.44-.26l-7.54-11.76c-.17-.26-.09-.61.17-.78.26-.17.61-.09.78.17l7.14,11.13c2.06-2.2,10.15-9.82,21.63-7.33.3.07.5.37.43.67-.07.3-.37.5-.67.43-12.61-2.74-20.94,7.41-21.03,7.51-.11.13-.27.21-.44.21Z"/><path class="cls-4" d="M400.28,178.35c-2.62,3.6-6.83,5.01-9.4,3.14-2.57-1.87-2.53-6.3.08-9.91s6.83-5.01,9.4-3.14c2.57,1.87,2.53,6.3-.08,9.91Z"/><path d="M393.55,182.88c-1.12,0-2.14-.32-3-.94-.25-.18-.31-.54-.12-.79.18-.25.54-.31.79-.12,1.09.79,2.57.94,4.17.4,1.66-.56,3.24-1.77,4.44-3.42,1.2-1.65,1.87-3.52,1.88-5.28.01-1.68-.58-3.05-1.67-3.84-2.32-1.68-6.18-.33-8.61,3.01-.18.25-.54.31-.79.12-.25-.18-.31-.54-.12-.79,2.8-3.85,7.37-5.31,10.18-3.26,1.39,1.01,2.15,2.71,2.14,4.76-.02,1.99-.76,4.09-2.1,5.93-1.33,1.84-3.11,3.19-4.99,3.82-.75.25-1.49.38-2.19.38Z"/></g></svg>